<svg width="32" height="32" viewBox="0 0 32 32" fill="none" xmlns="http://www.w3.org/2000/svg">
<path fill-rule="evenodd" clip-rule="evenodd" d="M16.0015 0C11.6561 0 11.1108 0.0190002 9.4041 0.0966677C7.70075 0.174668 6.53807 0.444338 5.52072 0.840009C4.46838 1.24868 3.5757 1.79535 2.68636 2.68503C1.79635 3.57437 1.24968 4.46705 0.839675 5.51906C0.443005 6.53673 0.173002 7.69975 0.0963343 9.40243C0.0200002 11.1091 0 11.6548 0 16.0002C0 20.3455 0.0193335 20.8892 0.0966677 22.5959C0.175002 24.2993 0.444671 25.4619 0.840009 26.4793C1.24901 27.5316 1.79569 28.4243 2.68536 29.3136C3.57437 30.2036 4.46705 30.7517 5.51872 31.1603C6.53673 31.556 7.69975 31.8257 9.40276 31.9037C11.1094 31.9813 11.6545 32.0003 15.9995 32.0003C20.3452 32.0003 20.8889 31.9813 22.5956 31.9037C24.2989 31.8257 25.4629 31.556 26.4809 31.1603C27.533 30.7517 28.4243 30.2036 29.3133 29.3136C30.2033 28.4243 30.75 27.5316 31.16 26.4796C31.5533 25.4619 31.8233 24.2989 31.9033 22.5962C31.98 20.8896 32 20.3455 32 16.0002C32 11.6548 31.98 11.1094 31.9033 9.40276C31.8233 7.69941 31.5533 6.53673 31.16 5.51939C30.75 4.46705 30.2033 3.57437 29.3133 2.68503C28.4233 1.79502 27.5333 1.24835 26.4799 0.840009C25.4599 0.444338 24.2966 0.174668 22.5932 0.0966677C20.8866 0.0190002 20.3432 0 15.9965 0L16.0015 0Z" fill="#EFEFEF"/>
<path fill-rule="evenodd" clip-rule="evenodd" d="M18.7421 32V17.8181H22.5574L23.063 13.0552H18.7421L18.7486 10.6713C18.7486 9.42905 18.8666 8.76343 20.6508 8.76343H23.036V4H19.2202C14.6368 4 13.0235 6.31052 13.0235 10.1961V13.0557H10.1665V17.8186H13.0235V32H18.7421Z" fill="#599560"/>
</svg>
