<?xml version="1.0" encoding="UTF-8"?><svg xmlns="http://www.w3.org/2000/svg" viewBox="0 0 165.01 205.68"><defs><style>.cls-1{fill:#5f9f66;}.cls-2{mix-blend-mode:multiply;}.cls-3{isolation:isolate;}</style></defs><g class="cls-3"><g id="Layer_2"><g id="Layer_1-2"><g class="cls-2"><g><path class="cls-1" d="M1.29,165.91c-1.97-2.63-1.62-5.63,.61-7.31l.67-.5,1.64,2.19-.23,.17c-1.67,1.25-1.88,2.62-.77,4.1,1.05,1.4,2.43,1.5,3.6,.63s1.35-1.89,.74-4.7c-.54-2.5-.84-5.21,1.37-6.87,2.09-1.57,4.94-1.33,6.93,1.32,1.97,2.63,1.59,5.56-.66,7.25l-.54,.41-1.6-2.13,.23-.17c1.27-.96,1.87-2.42,.67-4.02-.96-1.27-2.18-1.34-3.16-.6-1.11,.83-1.17,1.79-.53,5.03,.66,3.32,.37,5.1-1.53,6.53-2.34,1.75-5.46,1.33-7.45-1.32Z"/><path class="cls-1" d="M8.5,173.96l12.17-12.4,6.7,6.58-1.74,1.77-4.73-4.64-3.2,3.26,3.41,3.34-1.64,1.68-3.41-3.34-3.85,3.93,4.73,4.64-1.74,1.77-6.7-6.58Z"/><path class="cls-1" d="M19.15,183.79l10.28-14.01,2.23,1.64-8.82,12.01,5.22,3.83-1.47,2-7.44-5.47Z"/><path class="cls-1" d="M42.6,181.25l-7,13.12-2.44-1.3,7-13.12-3.73-1.99,1.18-2.21,9.9,5.28-1.18,2.21-3.73-1.99Z"/><path class="cls-1" d="M46.06,199.48c-3.28-1.21-4.21-3.59-3.09-6.6l.78-2.1,2.42,.9-.72,1.93c-.69,1.86-.17,3,1.38,3.57,1.54,.57,2.56,0,3.25-1.86l4.35-11.74,2.59,.96-4.28,11.54c-1.11,3.01-3.21,4.68-6.68,3.39Z"/><path class="cls-1" d="M64.54,204.02l-.22-4.62-4.37-.88-1.93,4.19-2.66-.53,7.92-16.13,2.86,.58,1.13,17.95-2.74-.55Zm-.64-14.02l-2.96,6.38,3.27,.66-.32-7.04Z"/><path class="cls-1" d="M82.77,205.66c-2.29-.09-3.05-.74-2.98-2.72l.11-2.84c.05-1.36-.51-2.29-2-2.35l-2.97-.11-.29,7.51-2.76-.11,.67-17.36,5.84,.22c3.41,.13,4.6,1.87,4.5,4.45l-.05,1.17c-.07,1.93-.82,3-2.79,3.26,1.92,.28,2.67,1.88,2.61,3.39l-.1,2.66c-.02,.47,.23,.69,.83,.71l-.08,2.14-.55-.02Zm-2.67-13.44c.04-1.09-.37-1.95-1.8-2l-3.08-.12-.21,5.53,2.79,.11c1.41,.05,2.19-.67,2.25-2.16l.05-1.36Z"/><path class="cls-1" d="M97.66,203.97l-6.02-7.57-2.18-2.92,1.5,11.38-2.59,.34-2.27-17.23,2.12-.28,5.92,7.75,2.1,2.93-1.52-11.54,2.59-.34,2.27,17.23-1.91,.25Z"/><path class="cls-1" d="M113.13,200.01l-2.39-3.96-4.26,1.31,.29,4.6-2.59,.8-.71-17.96,2.79-.86,9.53,15.25-2.67,.82Zm-7.24-12.02l.43,7.02,3.19-.98-3.63-6.04Z"/><path class="cls-1" d="M129.96,192.76c-2.06,1.02-3.04,.8-3.92-.97l-1.26-2.55c-.6-1.22-1.54-1.77-2.88-1.11l-2.67,1.32,3.33,6.73-2.48,1.23-7.7-15.57,5.24-2.59c3.06-1.51,4.94-.55,6.08,1.77l.52,1.05c.86,1.73,.71,3.02-.89,4.2,1.82-.67,3.24,.38,3.91,1.73l1.18,2.39c.21,.42,.53,.49,1.07,.23l.95,1.92-.49,.24Zm-8.76-10.54c-.49-.98-1.25-1.53-2.54-.9l-2.76,1.36,2.45,4.96,2.5-1.24c1.26-.62,1.61-1.64,.95-2.97l-.6-1.22Z"/><path class="cls-1" d="M142.23,184.13l-8.91-3.76-3.31-1.52,6.77,9.27-2.11,1.54-10.24-14.03,1.73-1.26,8.9,3.97,3.25,1.57-6.86-9.4,2.11-1.54,10.24,14.03-1.56,1.14Z"/><path class="cls-1" d="M148.32,178.94l-12.36-12.21,6.6-6.68,1.76,1.74-4.66,4.71,3.25,3.21,3.35-3.4,1.67,1.65-3.35,3.4,3.92,3.87,4.66-4.71,1.76,1.74-6.6,6.68Z"/><path class="cls-1" d="M161.44,164.66c-1.93,2.66-4.91,3.21-7.17,1.57l-.68-.49,1.61-2.22,.23,.17c1.69,1.23,3.06,1.03,4.15-.47,1.03-1.41,.72-2.77-.46-3.62-1.18-.86-2.21-.73-4.71,.67-2.23,1.25-4.73,2.34-6.97,.72-2.11-1.53-2.72-4.33-.78-7.01,1.93-2.66,4.84-3.16,7.12-1.51l.55,.4-1.56,2.15-.23-.17c-1.29-.93-2.86-1.08-4.04,.55-.93,1.29-.63,2.47,.36,3.19,1.12,.81,2.05,.59,4.96-.98,2.98-1.61,4.77-1.86,6.69-.47,2.37,1.72,2.88,4.83,.93,7.51Z"/></g><path class="cls-1" d="M112.6,153.42l-14.4-53.95,11.16-7.81c.77-.54,1.24-1.43,1.24-2.37V46.29c0-.59-.18-1.17-.52-1.65l-7.91-11.4c-.54-.78-1.43-1.25-2.38-1.24l-50.33,.03s3.84,7.64,6.03,12.13c.37,.76,.56,1.59,.56,2.44v104.8c0,.85-.19,1.68-.56,2.44-2.17,4.46-6.12,12.31-6.12,12.31h31.96s-3.96-7.88-6.13-12.34c-.37-.76-.56-1.59-.56-2.44v-35.41s6.61-4.62,6.61-4.62l10.1,42.01c.26,1.07,.19,2.19-.19,3.22-1.6,4.35-3.55,9.58-3.55,9.58h36.88s-6.12-5.93-10.44-10.2c-.7-.7-1.21-1.57-1.46-2.52ZM74.64,53.09h17.38v26.85c0,.75-.36,1.44-.97,1.87l-16.41,11.47V53.09Z"/><g><path class="cls-1" d="M21.98,18.86c-1,0-1.41-.9-1.47-2.26l-.06-1.64c-.06-1.35-.62-1.97-2.93-1.97h-4.4v5.83h-2.56V4.59h7.01c3.91,0,5.62,1.64,5.62,3.82v.21c0,1.56-.75,2.91-3.23,3.38,2.48,.19,3.1,1.45,3.1,3.01l.02,1.41c.02,.85,.19,1.43,.83,1.97v.47h-1.92Zm-1.41-10.21c0-.98-.7-1.9-2.71-1.9h-4.74v4.34h4.85c1.77,0,2.61-.88,2.61-2.03v-.41Z"/><path class="cls-1" d="M38.94,18.82l-1.62-3.55h-7.18l-1.58,3.55h-2.67l6.71-14.23h2.26l6.81,14.23h-2.73Zm-5.28-11.39l-2.67,5.9h5.4l-2.73-5.9Zm.79-4.21h-1.43l1.15-3.23h2.56l-2.29,3.23Z"/><path class="cls-1" d="M43.49,12.6v-1.94h2.22V4.59h6.62c4.55,0,7.28,2.78,7.28,6.24v1.79c0,3.42-2.73,6.19-7.28,6.19h-6.62v-6.22h-2.22Zm8.2-1.94v1.94h-3.42v4.06h3.97c3.01,0,4.81-1.73,4.81-4.17v-1.58c0-2.44-1.79-4.14-4.81-4.14h-3.97v3.89h3.42Z"/><path class="cls-1" d="M74.54,18.82l-1.62-3.55h-7.18l-1.58,3.55h-2.67l6.71-14.23h2.26l6.81,14.23h-2.73Zm-5.28-11.39l-2.67,5.9h5.4l-2.73-5.9Z"/><path class="cls-1" d="M91.76,18.82l-.41-1.79c-1.17,1.45-2.91,2.31-5.08,2.31-4.55,0-7.31-3.14-7.31-6.84v-1.41c0-3.74,3.03-6.99,7.73-6.99,3.18,0,5.32,1.37,6.58,3.23l-1.86,1.39c-1.03-1.3-2.63-2.41-4.74-2.41-3.38,0-5.13,2.18-5.13,4.68v1.52c0,2.52,1.86,4.64,5,4.64,2.44,0,4.1-1.58,4.1-3.33v-.32h-3.84v-2.07h6.54v7.41h-1.58Z"/><path class="cls-1" d="M97.44,18.82V4.59h11.62v2.18h-9.06v3.67h6.9v2.09h-6.9v4.1h9.06v2.18h-11.62Z"/><path class="cls-1" d="M124.33,18.86c-1,0-1.41-.9-1.47-2.26l-.06-1.64c-.06-1.35-.62-1.97-2.93-1.97h-4.4v5.83h-2.56V4.59h7.01c3.91,0,5.62,1.64,5.62,3.82v.21c0,1.56-.75,2.91-3.23,3.38,2.48,.19,3.1,1.45,3.1,3.01l.02,1.41c.02,.85,.19,1.43,.83,1.97v.47h-1.92Zm-1.41-10.21c0-.98-.7-1.9-2.71-1.9h-4.74v4.34h4.85c1.77,0,2.61-.88,2.61-2.03v-.41Z"/><path class="cls-1" d="M128.69,12.6v-1.94h2.22V4.59h6.62c4.55,0,7.28,2.78,7.28,6.24v1.79c0,3.42-2.73,6.19-7.28,6.19h-6.62v-6.22h-2.22Zm8.2-1.94v1.94h-3.42v4.06h3.97c3.01,0,4.81-1.73,4.81-4.17v-1.58c0-2.44-1.79-4.14-4.81-4.14h-3.97v3.89h3.42Z"/><path class="cls-1" d="M148.71,18.82V4.59h2.56v14.23h-2.56Z"/></g><g><path class="cls-1" d="M129.31,82.11v-10.47h5.66v1.49h-3.99v2.75h2.88v1.41h-2.88v3.32h3.99v1.49h-5.66Z"/><path class="cls-1" d="M139.96,82.38c-1.98,0-3.3-1.26-3.3-2.94v-.5h1.65v.17c0,1.26,.58,1.85,1.7,1.85,1.05,0,1.6-.63,1.6-1.51s-.42-1.34-2-2.06c-1.4-.64-2.81-1.48-2.81-3.14,0-1.57,1.15-2.86,3.14-2.86s3.25,1.24,3.25,2.94v.41h-1.6v-.17c0-.96-.49-1.78-1.7-1.78-.96,0-1.43,.57-1.43,1.3,0,.83,.44,1.21,2.23,2.07,1.84,.88,2.59,1.67,2.59,3.1,0,1.76-1.34,3.11-3.33,3.11Z"/><path class="cls-1" d="M148.89,73.16v8.96h-1.67v-8.96h-2.55v-1.51h6.76v1.51h-2.55Z"/><path class="cls-1" d="M152.34,82.11v-1.87h1.46v1.87h-1.46Z"/><g><path class="cls-1" d="M126.1,99.63c-1.94,1.85-2.58,3.5-2.58,4.7h6.68v2.24h-9.29v-.94c0-2.48,.58-4.38,3.88-7.54,2.25-1.98,3.25-3.26,3.25-4.98,0-1.41-.75-2.27-2.28-2.27-1.61,0-2.3,.86-2.3,2.35v1.59h-2.22v-1.62c0-2.32,1.47-4.36,4.49-4.36,3.36,0,4.63,2.06,4.63,4.41s-1.55,4.33-4.27,6.42Z"/><path class="cls-1" d="M137.19,106.96c-3.02,0-4.91-1.83-4.91-4.51v-9.13c0-2.69,1.89-4.51,4.91-4.51s4.91,1.83,4.91,4.51v9.13c0,2.69-1.91,4.51-4.91,4.51Zm2.44-13.88c0-1.17-.91-2.14-2.44-2.14s-2.47,.97-2.47,2.14v9.6c0,1.17,.94,2.14,2.47,2.14s2.44-.97,2.44-2.14v-9.6Z"/><path class="cls-1" d="M149.31,99.63c-1.94,1.85-2.58,3.5-2.58,4.7h6.68v2.24h-9.29v-.94c0-2.48,.58-4.38,3.88-7.54,2.25-1.98,3.25-3.26,3.25-4.98,0-1.41-.75-2.27-2.28-2.27-1.61,0-2.3,.86-2.3,2.35v1.59h-2.22v-1.62c0-2.32,1.47-4.36,4.49-4.36,3.36,0,4.63,2.06,4.63,4.41s-1.55,4.33-4.27,6.42Z"/><path class="cls-1" d="M160.74,99.63c-1.94,1.85-2.58,3.5-2.58,4.7h6.68v2.24h-9.29v-.94c0-2.48,.58-4.38,3.88-7.54,2.25-1.98,3.25-3.26,3.25-4.98,0-1.41-.75-2.27-2.28-2.27-1.61,0-2.3,.86-2.3,2.35v1.59h-2.22v-1.62c0-2.32,1.47-4.36,4.49-4.36,3.36,0,4.63,2.06,4.63,4.41s-1.55,4.33-4.27,6.42Z"/></g></g><g><path class="cls-1" d="M10.26,77.92h-1.56v4.2h-1.48v-10.47h3.03c1.7,0,2.45,.91,2.45,2.42v1.45c0,1.48-.75,2.4-2.45,2.4Zm.96-3.9c0-.69-.25-1.08-.94-1.08h-1.57v3.71h1.57c.69,0,.94-.41,.94-1.08v-1.54Z"/><path class="cls-1" d="M19.48,82.11l-2.59-5.09-.88-1.84v6.93h-1.41v-10.47h1.21l2.48,5.19,.83,1.84v-7.03h1.41v10.47h-1.05Z"/><path class="cls-1" d="M28.49,82.22c-1.18,0-1.59-.33-1.59-1.41v-2.04c0-.72-.33-1.21-1.08-1.21h-1.48v4.56h-1.49v-10.47h3.03c1.7,0,2.45,.85,2.45,2.34v1.15c0,1.02-.35,1.63-1.35,1.84,.99,.16,1.4,.99,1.4,1.82v1.9c0,.28,.13,.41,.44,.41v1.12h-.33Zm-1.65-8.27c0-.6-.25-1.02-.96-1.02h-1.54v3.49h1.38c.72,0,1.12-.41,1.12-1.19v-1.27Z"/><path class="cls-1" d="M30.73,82.11v-1.87h1.46v1.87h-1.46Z"/><path class="cls-1" d="M4.22,106.51v-16.15c.89,0,1.2-.6,1.2-1.23h1.43v17.37h-2.63Z"/><path class="cls-1" d="M15.38,106.51h-2.79c0-4.75,2.63-10.46,5.69-14.97h-7.64v-2.4h10.41v1.75c-3.44,5.22-5.66,9.78-5.66,15.63Z"/><path class="cls-1" d="M28.87,106.95c-3.31,0-5.35-2.03-5.35-5.03v-8.19c0-3,2.03-5.03,5.35-5.03s5.32,2.03,5.32,5.03v8.19c0,3-2.03,5.03-5.32,5.03Zm2.74-13.41c0-1.38-.99-2.5-2.74-2.5s-2.76,1.12-2.76,2.5v8.56c0,1.38,1.02,2.5,2.76,2.5s2.74-1.12,2.74-2.5v-8.56Z"/></g></g></g></g></g></svg>