<svg width="1089" height="300" viewBox="0 0 1089 300" fill="none" xmlns="http://www.w3.org/2000/svg">
<path d="M451.57 299.07H509.49L493.99 278.79C493.08 277.6 492.48 276.2 492.24 274.73L463.89 102.2C463.62 100.56 463.8 98.8896 464.41 97.3396C467.5 89.5196 472.32 77.5996 472.32 77.5996H416.25C416.25 77.5996 421.04 89.4296 424.13 97.2796C424.75 98.8396 424.92 100.55 424.64 102.2L395.07 274.57C394.82 276.02 394.22 277.4 393.33 278.57L377.66 299.08H435.58L426.7 283.31C425.67 281.48 425.3 279.35 425.66 277.29L428.68 259.65H458.71L461.59 277.19C461.93 279.24 461.55 281.34 460.54 283.15L451.57 299.08V299.07ZM433.93 229.02L444.02 170.21L453.68 229.02H433.93Z" fill="white"/>
<path d="M746.63 231.35L715.96 210.37V264.15H687.3V211.44H708.2V177.56H687.3V112.51H715.96V154.81L746.63 175.79V101.74C746.63 100.32 746.96 98.9199 747.59 97.6399L757.52 77.6299H645.73C645.73 77.6299 652.06 90.2299 655.68 97.6499C656.3 98.9099 656.62 100.29 656.62 101.7V274.81C656.62 276.21 656.3 277.6 655.68 278.86C652.06 286.27 645.73 298.87 645.73 298.87L757.52 298.96C757.52 298.96 751.19 286.36 747.57 278.95C746.95 277.69 746.63 276.3 746.63 274.9V231.34V231.35Z" fill="white"/>
<path d="M616.88 217.7C620.47 210.33 626.98 197.38 626.98 197.38H574.26C574.26 197.38 580.74 210.28 584.34 217.65C584.95 218.91 585.27 220.29 585.27 221.68V255H585.28V264.24H556.62V112.61H585.28V155.01L615.95 175.99V101.38C615.95 100.41 615.65 99.4603 615.1 98.6703L602.03 79.8303C601.14 78.5503 599.68 77.7803 598.12 77.7803H543.77C542.21 77.7803 540.75 78.5403 539.86 79.8303L526.79 98.6703C526.24 99.4703 525.94 100.41 525.94 101.38V278.81C525.94 279.92 526.33 281 527.04 281.85L539.85 297.33C540.76 298.43 542.11 299.06 543.53 299.06H596.2C597.51 299.06 598.75 298.53 599.65 297.58L614.62 281.9C615.47 281.01 615.94 279.83 615.94 278.6V231.53H615.93V221.72C615.93 220.32 616.25 218.94 616.86 217.69L616.88 217.7Z" fill="white"/>
<path d="M1077.66 274.67V101.69C1077.66 100.29 1077.98 98.9099 1078.59 97.6499C1082.21 90.2399 1088.54 77.6299 1088.54 77.6299H1036.09C1036.09 77.6299 1042.43 90.2399 1046.05 97.6499C1046.66 98.9099 1046.98 100.29 1046.98 101.69V274.71C1046.98 276.11 1046.66 277.49 1046.05 278.74C1042.46 286.11 1035.95 299.06 1035.95 299.06H1088.71C1088.71 299.06 1082.17 286.05 1078.58 278.69C1077.97 277.43 1077.65 276.06 1077.65 274.66L1077.66 274.67Z" fill="white"/>
<path d="M104.38 278.07L80.6 189L99.03 176.11C100.31 175.22 101.07 173.75 101.07 172.19V101.19C101.07 100.22 100.77 99.2697 100.22 98.4697L87.16 79.6497C86.27 78.3597 84.8 77.5897 83.23 77.5997L0.14 77.6397C0.14 77.6397 6.48 90.2497 10.1 97.6597C10.71 98.9197 11.03 100.29 11.03 101.69V274.72C11.03 276.12 10.71 277.49 10.1 278.75C6.51 286.12 0 299.07 0 299.07H52.76C52.76 299.07 46.22 286.05 42.63 278.7C42.02 277.44 41.7 276.07 41.7 274.67V216.21L52.62 208.58L69.3 277.95C69.72 279.72 69.62 281.57 68.99 283.27C66.35 290.45 63.13 299.08 63.13 299.08H124.03C124.03 299.08 113.92 289.29 106.8 282.24C105.64 281.09 104.81 279.66 104.39 278.08L104.38 278.07ZM41.7 112.42H70.4V156.75C70.4 157.98 69.8 159.13 68.79 159.84L41.7 178.78V112.42Z" fill="white"/>
<path d="M196.94 299.07H254.86L239.37 278.8C238.45 277.6 237.85 276.2 237.6 274.71L209.26 102.25C208.99 100.58 209.17 98.8598 209.79 97.2798C212.88 89.4598 217.68 77.5898 217.68 77.5898H161.61C161.61 77.5898 166.37 89.3598 169.47 97.2098C170.1 98.8098 170.28 100.55 169.99 102.25L140.44 274.55C140.19 276.01 139.59 277.4 138.68 278.58L123.02 299.08H180.94L172.07 283.33C171.03 281.49 170.66 279.35 171.02 277.26L174.04 259.65H204.08L206.96 277.16C207.3 279.22 206.92 281.34 205.9 283.16L196.94 299.07V299.07ZM179.3 229.02L189.39 170.21L199.05 229.02H179.3Z" fill="white"/>
<path d="M187.84 62.37H194.74C196.14 62.37 197.38 61.46 197.79 60.12L215.94 1.21C216.13 0.61 215.68 0 215.04 0H187.99C187.48 0 187.06 0.41 187.05 0.93L186.5 61.03C186.5 61.77 187.09 62.38 187.83 62.38L187.84 62.37Z" fill="white"/>
<path d="M363.58 98.4498L350.56 79.6798C349.65 78.3698 348.16 77.5898 346.57 77.5898H263.34C263.34 77.5898 269.68 90.2399 273.3 97.6599C273.91 98.9099 274.23 100.29 274.23 101.69V169.57H264.65V203.73H274.23V274.82C274.23 276.22 273.91 277.6 273.3 278.86C269.68 286.27 263.34 298.88 263.34 298.88L346.43 298.97C347.85 298.97 349.21 298.34 350.13 297.26L363.29 281.79C364.04 280.91 364.45 279.8 364.45 278.64V101.22C364.45 100.23 364.15 99.2598 363.58 98.4498ZM333.77 264.15H304.89V203.73H318.59V169.57H304.89V112.51H333.77V264.15Z" fill="white"/>
<path d="M879.75 278.05L855.97 188.98L874.4 176.09C875.68 175.2 876.44 173.73 876.44 172.17V101.17C876.44 100.2 876.14 99.2502 875.59 98.4502L862.53 79.6302C861.64 78.3402 860.17 77.5702 858.6 77.5802L775.51 77.6202C775.51 77.6202 781.85 90.2302 785.47 97.6402C786.08 98.9002 786.4 100.27 786.4 101.67V274.7C786.4 276.1 786.08 277.47 785.47 278.73C781.88 286.1 775.37 299.05 775.37 299.05H828.13C828.13 299.05 821.59 286.03 818 278.68C817.39 277.42 817.07 276.05 817.07 274.65V216.19L827.99 208.56L844.67 277.93C845.09 279.7 844.99 281.55 844.36 283.25C841.72 290.43 838.5 299.06 838.5 299.06H899.4C899.4 299.06 889.29 289.27 882.17 282.22C881.01 281.07 880.18 279.64 879.76 278.06L879.75 278.05ZM817.08 112.39H845.78V156.72C845.78 157.95 845.18 159.1 844.17 159.81L817.08 178.75V112.39V112.39Z" fill="white"/>
<path d="M1005.88 98.4498L992.86 79.6798C991.95 78.3698 990.46 77.5898 988.87 77.5898H905.64C905.64 77.5898 911.98 90.2399 915.6 97.6599C916.21 98.9099 916.53 100.29 916.53 101.69V169.57H906.95V203.73H916.53V274.82C916.53 276.22 916.21 277.6 915.6 278.86C911.98 286.27 905.64 298.88 905.64 298.88L988.73 298.97C990.15 298.97 991.51 298.34 992.43 297.26L1005.59 281.79C1006.34 280.91 1006.75 279.8 1006.75 278.64V101.22C1006.75 100.23 1006.45 99.2598 1005.88 98.4498ZM976.07 264.15H947.19V203.73H960.89V169.57H947.19V112.51H976.07V264.15Z" fill="white"/>
</svg>
