<?xml version="1.0" encoding="UTF-8"?><svg id="Layer_2" xmlns="http://www.w3.org/2000/svg" viewBox="0 0 60 60"><defs><style>.cls-1{fill:#fff;fill-rule:evenodd;}</style></defs><g id="Layer_1-2"><g><path class="cls-1" d="M30,0C13.43,0,0,13.43,0,30s13.43,30,30,30,30-13.43,30-30S46.57,0,30,0Zm-6.6,14.1c1.71-.08,2.25-.1,6.59-.1s4.89,.02,6.6,.1c1.7,.08,2.87,.35,3.89,.74,1.05,.41,1.94,.95,2.83,1.84,.89,.89,1.44,1.78,1.85,2.83,.39,1.02,.66,2.18,.74,3.88,.08,1.71,.1,2.25,.1,6.6s-.02,4.89-.1,6.6c-.08,1.7-.35,2.87-.74,3.88-.41,1.05-.96,1.94-1.85,2.83-.89,.89-1.78,1.44-2.83,1.85-1.02,.4-2.18,.67-3.89,.74-1.71,.08-2.25,.1-6.6,.1s-4.89-.02-6.6-.1c-1.7-.08-2.87-.35-3.88-.74-1.05-.41-1.94-.96-2.83-1.85-.89-.89-1.44-1.78-1.85-2.83-.4-1.02-.66-2.18-.74-3.88-.08-1.71-.1-2.25-.1-6.6s.02-4.89,.1-6.6c.08-1.7,.35-2.87,.74-3.88,.41-1.05,.96-1.94,1.85-2.83,.89-.89,1.78-1.44,2.83-1.84,1.02-.4,2.18-.67,3.88-.74Z"/><path class="cls-1" d="M28.57,16.88c.28,0,.58,0,.9,0h.53c4.27,0,4.78,.02,6.47,.09,1.56,.07,2.41,.33,2.97,.55,.75,.29,1.28,.64,1.84,1.2,.56,.56,.91,1.09,1.2,1.84,.22,.56,.48,1.41,.55,2.97,.08,1.69,.09,2.19,.09,6.46s-.02,4.78-.09,6.46c-.07,1.56-.33,2.41-.55,2.97-.29,.75-.64,1.28-1.2,1.84-.56,.56-1.09,.91-1.84,1.2-.56,.22-1.41,.48-2.97,.55-1.69,.08-2.19,.09-6.47,.09s-4.78-.02-6.47-.09c-1.56-.07-2.41-.33-2.97-.55-.75-.29-1.28-.64-1.84-1.2-.56-.56-.91-1.09-1.2-1.84-.22-.56-.48-1.41-.55-2.97-.08-1.69-.09-2.19-.09-6.47s.02-4.78,.09-6.46c.07-1.56,.33-2.41,.55-2.97,.29-.75,.64-1.28,1.2-1.84,.56-.56,1.09-.91,1.84-1.2,.56-.22,1.41-.48,2.97-.55,1.48-.07,2.05-.09,5.03-.09h0Zm9.98,2.66c-1.06,0-1.92,.86-1.92,1.92s.86,1.92,1.92,1.92,1.92-.86,1.92-1.92-.86-1.92-1.92-1.92h0Zm-16.76,10.46c0-4.54,3.68-8.22,8.22-8.22s8.22,3.68,8.22,8.22-3.68,8.22-8.22,8.22-8.22-3.68-8.22-8.22Z"/><path class="cls-1" d="M30,24.67c2.95,0,5.33,2.39,5.33,5.33s-2.39,5.33-5.33,5.33-5.33-2.39-5.33-5.33,2.39-5.33,5.33-5.33h0Z"/></g></g></svg>