<?xml version="1.0" encoding="UTF-8"?><svg id="Layer_2" xmlns="http://www.w3.org/2000/svg" viewBox="0 0 60 60"><defs><style>.cls-1{fill:#fff;fill-rule:evenodd;}</style></defs><g id="Layer_1-2"><g><path class="cls-1" d="M0,30C0,13.43,13.43,0,30,0s30,13.43,30,30-13.43,30-30,30S0,46.57,0,30Zm47.48-7.33h-5.93c-3.33-2.18-7.37-3.34-11.84-3.34s-8.84,1.18-12.15,3.38h-5.56s1.31,1.8,1.73,3.59c-1.08,1.49-1.72,3.33-1.72,5.32,0,4.97,3.99,9.01,8.89,9.01,2.8,0,5.3-1.32,6.93-3.38l1.89,2.88,1.91-2.9c.86,1.11,1.96,2,3.26,2.62,2.16,1.01,4.57,1.1,6.8,.27,4.6-1.73,6.96-6.93,5.26-11.58-.3-.82-.71-1.57-1.19-2.24,.42-1.81,1.74-3.62,1.74-3.62Z"/><path class="cls-1" d="M20.89,38.82c2.44,0,4.6-1.26,5.87-3.17,.65-.96,1.03-2.11,1.15-3.32,0-.08,.02-.15,.03-.23,.02-.16,.04-.31,.04-.48,0-3.97-3.18-7.2-7.09-7.2s-7.09,3.23-7.09,7.2,3.18,7.19,7.09,7.19Zm-.11-2.83c-2.42,0-4.39-2-4.39-4.45s1.97-4.45,4.39-4.45c2.41,0,4.39,2,4.39,4.45s-1.97,4.45-4.39,4.45Z"/><path class="cls-1" d="M35.63,38.19c1.72,.81,3.65,.88,5.43,.22,3.67-1.38,5.55-5.52,4.2-9.25-1.36-3.72-5.44-5.63-9.11-4.26-1.78,.67-3.19,2-3.99,3.74-.53,1.17-.71,2.43-.59,3.68,.06,.62,.17,1.23,.38,1.82,.19,.52,.45,1,.74,1.46,.72,1.12,1.72,2.02,2.94,2.59Zm2.95-2.2c-2.42,0-4.39-2-4.39-4.45s1.97-4.45,4.39-4.45c2.42,0,4.38,2,4.38,4.45s-1.97,4.45-4.38,4.45Z"/><path class="cls-1" d="M20.78,28.62c-1.59,0-2.88,1.31-2.88,2.92s1.29,2.92,2.88,2.92c1.58,0,2.87-1.31,2.87-2.92s-1.29-2.92-2.87-2.92Zm0,4.42c.81,0,1.48-.68,1.48-1.5s-.66-1.5-1.48-1.49c-.82,0-1.48,.67-1.48,1.49s.66,1.5,1.48,1.5Z"/><path class="cls-1" d="M38.58,28.62c-1.59,0-2.88,1.31-2.88,2.92s1.29,2.92,2.88,2.92c1.58,0,2.87-1.31,2.87-2.92s-1.29-2.92-2.87-2.92Zm0,4.42c.81,0,1.47-.68,1.47-1.5s-.66-1.5-1.47-1.49c-.82,0-1.48,.67-1.48,1.49s.66,1.5,1.48,1.5Z"/><path class="cls-1" d="M35.52,23.19c.93-.35,1.87-.51,2.81-.54-2.55-1.16-5.43-1.74-8.62-1.74s-6.09,.6-8.64,1.7c4.61,.09,8.35,3.75,8.67,8.37,.08-1.06,.33-2.11,.78-3.1,.99-2.19,2.77-3.86,5-4.69Z"/></g></g></svg>