<svg width="33" height="33" viewBox="0 0 33 33" fill="none" xmlns="http://www.w3.org/2000/svg">
<path d="M29.4758 27.6799L23.4233 21.6286C23.5608 21.5874 23.697 21.5436 23.832 21.4949C25.6999 20.8145 27.2212 19.4204 28.0617 17.6189C28.9023 15.8174 28.9932 13.7559 28.3145 11.8874C28.2238 11.6383 28.0378 11.4354 27.7976 11.3234C27.5573 11.2113 27.2824 11.1993 27.0333 11.2899L21.5083 13.2999C21.5483 13.2224 21.5883 13.1449 21.6245 13.0649C22.2517 11.7209 22.4663 10.2212 22.2413 8.75532C22.0163 7.28942 21.3617 5.92313 20.3604 4.82918C19.359 3.73522 18.0557 2.96271 16.6154 2.60929C15.1751 2.25587 13.6623 2.33741 12.2683 2.84361C12.1445 2.88805 12.0307 2.95647 11.9334 3.04495C11.8361 3.13343 11.7572 3.24023 11.7012 3.35925C11.6453 3.47826 11.6133 3.60715 11.6072 3.73852C11.6011 3.86989 11.621 4.00118 11.6658 4.12486L13.6758 9.64986C13.5983 9.60986 13.5208 9.56986 13.4408 9.53361C12.0965 8.90723 10.5968 8.69342 9.13107 8.91921C7.66536 9.14499 6.29948 9.80024 5.20609 10.8021C4.11269 11.804 3.34086 13.1076 2.98816 14.548C2.63545 15.9885 2.7177 17.5011 3.2245 18.8949C3.31525 19.1439 3.50119 19.3468 3.74144 19.4588C3.9817 19.5709 4.25661 19.5829 4.50575 19.4924L10.0308 17.4811C9.99076 17.5599 9.95076 17.6374 9.91451 17.7174C9.28812 19.0616 9.07432 20.5613 9.3001 22.027C9.52589 23.4928 10.1811 24.8586 11.183 25.952C12.1849 27.0454 13.4885 27.8172 14.9289 28.17C16.3694 28.5227 17.882 28.4404 19.2758 27.9336C19.5248 27.8429 19.7277 27.6569 19.8397 27.4167C19.9518 27.1764 19.9638 26.9015 19.8733 26.6524L17.862 21.1274C17.9408 21.1674 18.0183 21.2074 18.0983 21.2436C18.9806 21.6568 19.9351 21.8937 20.9083 21.9411L28.0608 29.0949C28.2484 29.2825 28.5029 29.3879 28.7683 29.3879C29.0336 29.3879 29.2881 29.2825 29.4758 29.0949C29.6634 28.9072 29.7688 28.6527 29.7688 28.3874C29.7688 28.122 29.6634 27.8675 29.4758 27.6799ZM17.152 4.90611C18.062 5.32896 18.839 5.99273 19.3989 6.82552C19.9587 7.65832 20.28 8.6284 20.3281 9.63073C20.3761 10.6331 20.149 11.6294 19.6713 12.5119C19.1937 13.3944 18.4837 14.1294 17.6183 14.6374L13.917 4.46611C15.015 4.279 16.1439 4.43255 17.152 4.90611ZM4.84701 17.2399C4.62977 15.9699 4.86526 14.664 5.51241 13.5499C6.15956 12.4358 7.17728 11.5843 8.38806 11.1439C9.59884 10.7034 10.9258 10.702 12.1375 11.1399C13.3492 11.5778 14.3688 12.4272 15.0183 13.5399L4.84701 17.2399ZM14.3933 25.8711C13.4845 25.4478 12.7087 24.7841 12.1497 23.9518C11.5908 23.1195 11.27 22.1502 11.222 21.1488C11.1739 20.1474 11.4006 19.1519 11.8773 18.27C12.3541 17.388 13.0629 16.6532 13.927 16.1449L17.627 26.3111C16.5294 26.4982 15.4009 26.3446 14.3933 25.8711ZM21.3383 19.9486H21.3245C20.3582 19.9559 19.4069 19.7094 18.5659 19.2335C17.7248 18.7577 17.0235 18.0694 16.532 17.2374L26.6983 13.5361C26.8288 14.3191 26.7885 15.121 26.5802 15.8869C26.3719 16.6528 26.0005 17.3647 25.4914 17.9737C24.9823 18.5827 24.3477 19.0745 23.6308 19.4154C22.914 19.7563 22.1319 19.9382 21.3383 19.9486Z" fill="white"/>
</svg>
