<svg width="54" height="54" viewBox="0 0 54 54" fill="none" xmlns="http://www.w3.org/2000/svg">
<circle cx="27" cy="27" r="27" fill="#629F67"/>
<path d="M32.75 17.9685C31.206 16.1853 29.4682 14.5795 27.5688 13.181C27.4006 13.0632 27.2003 13 26.995 13C26.7897 13 26.5894 13.0632 26.4213 13.181C24.5253 14.5801 22.7909 16.1858 21.25 17.9685C17.8138 21.9147 16 26.0747 16 29.9997C16 32.9171 17.1589 35.715 19.2218 37.7779C21.2847 39.8408 24.0826 40.9997 27 40.9997C29.9174 40.9997 32.7153 39.8408 34.7782 37.7779C36.8411 35.715 38 32.9171 38 29.9997C38 26.0747 36.1862 21.9147 32.75 17.9685ZM27 38.9997C24.6139 38.9971 22.3262 38.048 20.639 36.3608C18.9517 34.6735 18.0026 32.3859 18 29.9997C18 22.846 24.9337 16.8747 27 15.2497C29.0663 16.8747 36 22.8435 36 29.9997C35.9974 32.3859 35.0483 34.6735 33.361 36.3608C31.6738 38.048 29.3861 38.9971 27 38.9997ZM33.9862 31.1672C33.7269 32.6156 33.0301 33.9498 31.9896 34.9901C30.949 36.0304 29.6147 36.727 28.1663 36.986C28.1113 36.9948 28.0557 36.9994 28 36.9997C27.7492 36.9997 27.5075 36.9053 27.323 36.7354C27.1384 36.5655 27.0245 36.3325 27.0037 36.0825C26.9829 35.8325 27.0569 35.5839 27.2108 35.3859C27.3648 35.1878 27.5876 35.0549 27.835 35.0135C29.9062 34.6647 31.6637 32.9072 32.015 30.8322C32.0594 30.5707 32.2059 30.3374 32.4223 30.1839C32.6387 30.0303 32.9072 29.969 33.1688 30.0135C33.4303 30.0579 33.6635 30.2044 33.8171 30.4208C33.9706 30.6371 34.0319 30.9056 33.9875 31.1672H33.9862Z" fill="white"/>
</svg>
