<svg width="54" height="54" viewBox="0 0 54 54" fill="none" xmlns="http://www.w3.org/2000/svg">
<circle cx="27" cy="27" r="27" fill="#629F67"/>
<path d="M41 31.0006H35.9438C35.9807 30.6686 35.9994 30.3347 36 30.0006C36 27.6137 35.0518 25.3245 33.364 23.6367C31.6761 21.9489 29.3869 21.0006 27 21.0006C24.6131 21.0006 22.3239 21.9489 20.636 23.6367C18.9482 25.3245 18 27.6137 18 30.0006C18.0006 30.3347 18.0193 30.6686 18.0563 31.0006H13C12.7348 31.0006 12.4804 31.106 12.2929 31.2935C12.1054 31.4811 12 31.7354 12 32.0006C12 32.2659 12.1054 32.5202 12.2929 32.7077C12.4804 32.8953 12.7348 33.0006 13 33.0006H41C41.2652 33.0006 41.5196 32.8953 41.7071 32.7077C41.8946 32.5202 42 32.2659 42 32.0006C42 31.7354 41.8946 31.4811 41.7071 31.2935C41.5196 31.106 41.2652 31.0006 41 31.0006ZM20 30.0006C19.9982 29.038 20.1949 28.0854 20.5779 27.2022C20.9609 26.3191 21.5219 25.5244 22.2259 24.8679C22.9299 24.2114 23.7618 23.7071 24.6695 23.3866C25.5772 23.0661 26.5412 22.9363 27.5013 23.0053C28.4615 23.0742 29.3971 23.3404 30.2497 23.7873C31.1023 24.2342 31.8536 24.8522 32.4565 25.6025C33.0595 26.3529 33.5012 27.2196 33.7541 28.1484C34.007 29.0772 34.0656 30.0482 33.9263 31.0006H20.0737C20.0253 30.6695 20.0007 30.3353 20 30.0006ZM38 37.0006C38 37.2659 37.8946 37.5202 37.7071 37.7077C37.5196 37.8953 37.2652 38.0006 37 38.0006H17C16.7348 38.0006 16.4804 37.8953 16.2929 37.7077C16.1054 37.5202 16 37.2659 16 37.0006C16 36.7354 16.1054 36.4811 16.2929 36.2935C16.4804 36.106 16.7348 36.0006 17 36.0006H37C37.2652 36.0006 37.5196 36.106 37.7071 36.2935C37.8946 36.4811 38 36.7354 38 37.0006ZM20.105 17.4481C19.9863 17.2108 19.9668 16.936 20.0507 16.6842C20.1346 16.4324 20.3151 16.2243 20.5525 16.1056C20.7899 15.987 21.0647 15.9674 21.3164 16.0514C21.5682 16.1353 21.7763 16.3158 21.895 16.5531L22.895 18.5531C22.9538 18.6707 22.9888 18.7986 22.9981 18.9297C23.0074 19.0608 22.9908 19.1924 22.9493 19.3171C22.9077 19.4417 22.842 19.557 22.7559 19.6563C22.6698 19.7555 22.565 19.8369 22.4475 19.8956C22.33 19.9544 22.202 19.9894 22.0709 19.9988C21.9399 20.0081 21.8082 19.9915 21.6836 19.9499C21.5589 19.9084 21.4436 19.8427 21.3444 19.7566C21.2451 19.6705 21.1638 19.5657 21.105 19.4481L20.105 17.4481ZM13.105 23.5531C13.1638 23.4357 13.2452 23.3309 13.3445 23.2449C13.4438 23.1589 13.5591 23.0933 13.6838 23.0518C13.8085 23.0104 13.9401 22.9939 14.0711 23.0034C14.2022 23.0128 14.3301 23.048 14.4475 23.1069L16.4475 24.1069C16.6847 24.2256 16.865 24.4336 16.9488 24.6853C17.0327 24.9369 17.0131 25.2116 16.8944 25.4488C16.7757 25.686 16.5676 25.8663 16.316 25.9501C16.0643 26.0339 15.7897 26.0143 15.5525 25.8956L13.5525 24.8956C13.4349 24.8369 13.33 24.7556 13.2439 24.6564C13.1578 24.5571 13.092 24.4418 13.0505 24.3172C13.0089 24.1925 12.9923 24.0608 13.0017 23.9297C13.011 23.7986 13.0461 23.6707 13.105 23.5531ZM37.105 25.4481C36.9865 25.2109 36.9671 24.9364 37.051 24.6849C37.135 24.4333 37.3153 24.2254 37.5525 24.1069L39.5525 23.1069C39.67 23.0481 39.7978 23.0131 39.9288 23.0037C40.0598 22.9944 40.1914 23.0109 40.316 23.0524C40.4406 23.0939 40.5558 23.1595 40.655 23.2456C40.7543 23.3316 40.8356 23.4363 40.8944 23.5538C40.9531 23.6712 40.9882 23.7991 40.9975 23.9301C41.0069 24.0611 40.9903 24.1926 40.9488 24.3173C40.9074 24.4419 40.8417 24.5571 40.7557 24.6563C40.6697 24.7555 40.565 24.8369 40.4475 24.8956L38.4475 25.8956C38.33 25.9545 38.202 25.9896 38.0709 25.999C37.9398 26.0083 37.8082 25.9917 37.6835 25.9502C37.5588 25.9086 37.4435 25.8429 37.3443 25.7567C37.245 25.6706 37.1637 25.5657 37.105 25.4481ZM31.105 18.5531L32.105 16.5531C32.2237 16.3158 32.4318 16.1353 32.6836 16.0514C32.9353 15.9674 33.2101 15.987 33.4475 16.1056C33.6849 16.2243 33.8654 16.4324 33.9493 16.6842C34.0332 16.936 34.0137 17.2108 33.895 17.4481L32.895 19.4481C32.7763 19.6855 32.5682 19.866 32.3164 19.9499C32.0647 20.0339 31.7899 20.0143 31.5525 19.8956C31.3151 19.777 31.1346 19.5688 31.0507 19.3171C30.9668 19.0653 30.9863 18.7905 31.105 18.5531Z" fill="white"/>
</svg>
