<svg width="54" height="54" viewBox="0 0 54 54" fill="none" xmlns="http://www.w3.org/2000/svg">
<circle cx="27" cy="27" r="27" fill="#629F67"/>
<path d="M37 21.9995C36.7348 21.9995 36.4804 22.1049 36.2929 22.2924C36.1054 22.4799 36 22.7343 36 22.9995V24.9995H34.6063L34 18.8995C33.9744 18.6483 33.8547 18.4161 33.665 18.2495L28.305 13.4845L28.28 13.4633C27.9206 13.1639 27.4677 13 27 13C26.5323 13 26.0794 13.1639 25.72 13.4633L25.695 13.4845L20.335 18.2495C20.1453 18.4161 20.0256 18.6483 20 18.8995L19.3938 24.9995H18V22.9995C18 22.7343 17.8946 22.4799 17.7071 22.2924C17.5196 22.1049 17.2652 21.9995 17 21.9995C16.7348 21.9995 16.4804 22.1049 16.2929 22.2924C16.1054 22.4799 16 22.7343 16 22.9995V25.9995C16 26.2647 16.1054 26.5191 16.2929 26.7066C16.4804 26.8941 16.7348 26.9995 17 26.9995H19.1925L18.0087 38.8095C17.9823 39.0869 18.0141 39.3668 18.1021 39.6313C18.1901 39.8957 18.3325 40.1388 18.5199 40.345C18.7074 40.5512 18.9359 40.7159 19.1908 40.8286C19.4457 40.9413 19.7213 40.9995 20 40.9995H34C34.279 40.9994 34.555 40.941 34.8101 40.8279C35.0652 40.7148 35.2938 40.5496 35.4812 40.3428C35.6687 40.1361 35.8108 39.8924 35.8984 39.6275C35.986 39.3626 36.0172 39.0822 35.99 38.8045L34.8075 26.9995H37C37.2652 26.9995 37.5196 26.8941 37.7071 26.7066C37.8946 26.5191 38 26.2647 38 25.9995V22.9995C38 22.7343 37.8946 22.4799 37.7071 22.2924C37.5196 22.1049 37.2652 21.9995 37 21.9995ZM27 14.9995L30.375 17.9995H23.625L27 14.9995ZM21.905 19.9995H32.095L32.595 24.9995H28V22.9995C28 22.7343 27.8946 22.4799 27.7071 22.2924C27.5196 22.1049 27.2652 21.9995 27 21.9995C26.7348 21.9995 26.4804 22.1049 26.2929 22.2924C26.1054 22.4799 26 22.7343 26 22.9995V24.9995H21.4038L21.905 19.9995ZM20 38.9995L20.5 33.9995H33.5L34 38.9995H20ZM33.2987 31.9995H20.7013L21.2013 26.9995H32.7962L33.2987 31.9995Z" fill="white"/>
</svg>
