<svg width="54" height="54" viewBox="0 0 54 54" fill="none" xmlns="http://www.w3.org/2000/svg">
<circle cx="27" cy="27" r="27" fill="#629F67"/>
<path d="M40.3288 23.0556L17.3288 15.0556C17.178 15.0031 17.0169 14.9875 16.8589 15.01C16.7008 15.0325 16.5505 15.0926 16.4204 15.1851C16.2904 15.2776 16.1843 15.3999 16.1112 15.5418C16.038 15.6836 15.9999 15.841 16 16.0006V38.0006C16 38.2658 16.1054 38.5202 16.2929 38.7077C16.4804 38.8952 16.7348 39.0006 17 39.0006C17.2652 39.0006 17.5196 38.8952 17.7071 38.7077C17.8946 38.5202 18 38.2658 18 38.0006V32.7118L40.3288 24.9456C40.5252 24.8776 40.6956 24.75 40.8163 24.5806C40.9369 24.4113 41.0017 24.2085 41.0017 24.0006C41.0017 23.7927 40.9369 23.5899 40.8163 23.4205C40.6956 23.2512 40.5252 23.1236 40.3288 23.0556ZM18 30.5943V17.4068L36.9562 24.0006L18 30.5943Z" fill="white"/>
</svg>
