<svg width="54" height="54" viewBox="0 0 54 54" fill="none" xmlns="http://www.w3.org/2000/svg">
<circle cx="27" cy="27" r="27" fill="#629F67"/>
<path d="M41 35.9979H39V24.4416C39 24.1648 38.9426 23.891 38.8314 23.6376C38.7201 23.3841 38.5575 23.1565 38.3538 22.9691L28.3538 13.5341C28.3489 13.5299 28.3443 13.5253 28.34 13.5204C27.9718 13.1855 27.492 13 26.9944 13C26.4967 13 26.0169 13.1855 25.6488 13.5204L25.635 13.5341L15.6462 22.9691C15.4425 23.1565 15.2799 23.3841 15.1686 23.6376C15.0574 23.891 15 24.1648 15 24.4416V35.9979H13C12.7348 35.9979 12.4804 36.1032 12.2929 36.2908C12.1054 36.4783 12 36.7327 12 36.9979C12 37.2631 12.1054 37.5174 12.2929 37.705C12.4804 37.8925 12.7348 37.9979 13 37.9979H41C41.2652 37.9979 41.5196 37.8925 41.7071 37.705C41.8946 37.5174 42 37.2631 42 36.9979C42 36.7327 41.8946 36.4783 41.7071 36.2908C41.5196 36.1032 41.2652 35.9979 41 35.9979ZM17 24.4416L17.0138 24.4291L27 14.9979L36.9875 24.4266L37.0012 24.4391V35.9979H31V29.9979C31 29.4674 30.7893 28.9587 30.4142 28.5837C30.0391 28.2086 29.5304 27.9979 29 27.9979H25C24.4696 27.9979 23.9609 28.2086 23.5858 28.5837C23.2107 28.9587 23 29.4674 23 29.9979V35.9979H17V24.4416ZM29 35.9979H25V29.9979H29V35.9979Z" fill="white"/>
</svg>
