<svg width="54" height="54" viewBox="0 0 54 54" fill="none" xmlns="http://www.w3.org/2000/svg">
<circle cx="27" cy="27" r="27" fill="#629F67"/>
<path d="M22 29.6737C22.2652 29.6737 22.5196 29.5684 22.7071 29.3809C22.8946 29.1933 23 28.939 23 28.6737V27H31V28.9112C31 29.1765 31.1054 29.4308 31.2929 29.6184C31.4804 29.8059 31.7348 29.9112 32 29.9112C32.2652 29.9112 32.5196 29.8059 32.7071 29.6184C32.8946 29.4308 33 29.1765 33 28.9112V15C33 14.7348 32.8946 14.4804 32.7071 14.2929C32.5196 14.1054 32.2652 14 32 14C31.7348 14 31.4804 14.1054 31.2929 14.2929C31.1054 14.4804 31 14.7348 31 15V17H23V15C23 14.7348 22.8946 14.4804 22.7071 14.2929C22.5196 14.1054 22.2652 14 22 14C21.7348 14 21.4804 14.1054 21.2929 14.2929C21.1054 14.4804 21 14.7348 21 15V28.6737C21 28.939 21.1054 29.1933 21.2929 29.3809C21.4804 29.5684 21.7348 29.6737 22 29.6737ZM23 25V23H31V25H23ZM31 19V21H23V19H31ZM14 32C14 31.7348 14.1054 31.4804 14.2929 31.2929C14.4804 31.1054 14.7348 31 15 31C16.8025 31 17.7737 31.6475 18.555 32.1675C19.25 32.6325 19.8025 33 21 33C22.1975 33 22.75 32.6325 23.445 32.1675C24.225 31.6475 25.195 31 26.9987 31C28.8025 31 29.7737 31.6475 30.5537 32.1675C31.2512 32.6325 31.8038 33 33 33C34.1962 33 34.75 32.6325 35.445 32.1675C36.2262 31.6475 37.195 31 39 31C39.2652 31 39.5196 31.1054 39.7071 31.2929C39.8946 31.4804 40 31.7348 40 32C40 32.2652 39.8946 32.5196 39.7071 32.7071C39.5196 32.8946 39.2652 33 39 33C37.8025 33 37.25 33.3675 36.555 33.8325C35.7738 34.3525 34.805 35 33 35C31.195 35 30.225 34.3525 29.445 33.8325C28.75 33.3675 28.1962 33 27 33C25.8038 33 25.25 33.3675 24.555 33.8325C23.775 34.3525 22.805 35 21.0013 35C19.1975 35 18.2275 34.3525 17.4462 33.8325C16.75 33.3675 16.1975 33 15 33C14.7348 33 14.4804 32.8946 14.2929 32.7071C14.1054 32.5196 14 32.2652 14 32ZM40 37C40 37.2652 39.8946 37.5196 39.7071 37.7071C39.5196 37.8946 39.2652 38 39 38C37.8025 38 37.25 38.3675 36.555 38.8325C35.7738 39.3525 34.805 40 33 40C31.195 40 30.225 39.3525 29.445 38.8325C28.75 38.3675 28.1962 38 27 38C25.8038 38 25.25 38.3675 24.555 38.8325C23.775 39.3525 22.805 40 21.0013 40C19.1975 40 18.2275 39.3525 17.4462 38.8325C16.75 38.3675 16.1975 38 15 38C14.7348 38 14.4804 37.8946 14.2929 37.7071C14.1054 37.5196 14 37.2652 14 37C14 36.7348 14.1054 36.4804 14.2929 36.2929C14.4804 36.1054 14.7348 36 15 36C16.8025 36 17.7737 36.6475 18.555 37.1675C19.25 37.6325 19.8025 38 21 38C22.1975 38 22.75 37.6325 23.445 37.1675C24.225 36.6475 25.195 36 26.9987 36C28.8025 36 29.7737 36.6475 30.5537 37.1675C31.2512 37.6325 31.8038 38 33 38C34.1962 38 34.75 37.6325 35.445 37.1675C36.2262 36.6475 37.195 36 39 36C39.2652 36 39.5196 36.1054 39.7071 36.2929C39.8946 36.4804 40 36.7348 40 37Z" fill="white"/>
</svg>
