<svg width="54" height="54" viewBox="0 0 54 54" fill="none" xmlns="http://www.w3.org/2000/svg">
<circle cx="27" cy="27" r="27" fill="#629F67"/>
<path d="M41.9137 26.595C41.87 26.4963 40.8113 24.1475 38.4575 21.7937C35.3213 18.6575 31.36 17 27 17C22.64 17 18.6787 18.6575 15.5425 21.7937C13.1887 24.1475 12.125 26.5 12.0862 26.595C12.0294 26.7229 12 26.8613 12 27.0012C12 27.1412 12.0294 27.2796 12.0862 27.4075C12.13 27.5062 13.1887 29.8538 15.5425 32.2075C18.6787 35.3425 22.64 37 27 37C31.36 37 35.3213 35.3425 38.4575 32.2075C40.8113 29.8538 41.87 27.5062 41.9137 27.4075C41.9706 27.2796 42 27.1412 42 27.0012C42 26.8613 41.9706 26.7229 41.9137 26.595ZM27 35C23.1525 35 19.7912 33.6012 17.0087 30.8438C15.8671 29.7084 14.8957 28.4137 14.125 27C14.8955 25.5862 15.8669 24.2915 17.0087 23.1562C19.7912 20.3988 23.1525 19 27 19C30.8475 19 34.2087 20.3988 36.9912 23.1562C38.1352 24.2912 39.1086 25.5859 39.8813 27C38.98 28.6825 35.0538 35 27 35ZM27 21C25.8133 21 24.6533 21.3519 23.6666 22.0112C22.6799 22.6705 21.9108 23.6075 21.4567 24.7039C21.0026 25.8003 20.8838 27.0067 21.1153 28.1705C21.3468 29.3344 21.9182 30.4035 22.7574 31.2426C23.5965 32.0818 24.6656 32.6532 25.8295 32.8847C26.9933 33.1162 28.1997 32.9974 29.2961 32.5433C30.3925 32.0892 31.3295 31.3201 31.9888 30.3334C32.6481 29.3467 33 28.1867 33 27C32.9983 25.4092 32.3657 23.884 31.2408 22.7592C30.116 21.6343 28.5908 21.0017 27 21ZM27 31C26.2089 31 25.4355 30.7654 24.7777 30.3259C24.1199 29.8864 23.6072 29.2616 23.3045 28.5307C23.0017 27.7998 22.9225 26.9956 23.0769 26.2196C23.2312 25.4437 23.6122 24.731 24.1716 24.1716C24.731 23.6122 25.4437 23.2312 26.2196 23.0769C26.9956 22.9225 27.7998 23.0017 28.5307 23.3045C29.2616 23.6072 29.8864 24.1199 30.3259 24.7777C30.7654 25.4355 31 26.2089 31 27C31 28.0609 30.5786 29.0783 29.8284 29.8284C29.0783 30.5786 28.0609 31 27 31Z" fill="white"/>
</svg>
