<svg width="54" height="54" viewBox="0 0 54 54" fill="none" xmlns="http://www.w3.org/2000/svg">
<circle cx="27" cy="27" r="27" fill="#629F67"/>
<path d="M34.0006 20.5071C34.0006 20.8038 33.9127 21.0938 33.7478 21.3404C33.583 21.5871 33.3487 21.7794 33.0746 21.8929C32.8006 22.0064 32.499 22.0361 32.208 21.9783C31.917 21.9204 31.6497 21.7775 31.44 21.5677C31.2302 21.358 31.0873 21.0907 31.0294 20.7997C30.9716 20.5087 31.0013 20.2071 31.1148 19.9331C31.2283 19.659 31.4206 19.4247 31.6673 19.2599C31.9139 19.0951 32.204 19.0071 32.5006 19.0071C32.8985 19.0071 33.28 19.1651 33.5613 19.4464C33.8426 19.7277 34.0006 20.1093 34.0006 20.5071ZM27.6406 28.2383C27.5399 28.154 27.4236 28.0904 27.2983 28.0511C27.173 28.0117 27.0412 27.9974 26.9104 28.009C26.7795 28.0207 26.6523 28.0579 26.5359 28.1187C26.4195 28.1795 26.3162 28.2626 26.2319 28.3633L21.2319 34.3633C21.0621 34.5672 20.9803 34.8302 21.0045 35.0944C21.0286 35.3586 21.1567 35.6023 21.3606 35.7721C21.5645 35.9418 21.8275 36.0236 22.0917 35.9995C22.3559 35.9753 22.5996 35.8472 22.7694 35.6433L27.7694 29.6433C27.938 29.4397 28.0191 29.1776 27.995 28.9143C27.9709 28.651 27.8435 28.4079 27.6406 28.2383ZM42.0006 22.0071C42.0007 22.1718 41.9602 22.3339 41.8825 22.4791C41.8049 22.6244 41.6926 22.7482 41.5556 22.8396L39.0006 24.5421V27.0071C38.997 30.4538 37.6262 33.7583 35.189 36.1954C32.7518 38.6326 29.4473 40.0034 26.0006 40.0071H13.0006C12.8122 40.0072 12.6275 39.9541 12.468 39.8538C12.3084 39.7535 12.1804 39.6102 12.0987 39.4404C12.0171 39.2705 11.9851 39.0811 12.0064 38.8938C12.0278 38.7066 12.1016 38.5292 12.2194 38.3821L24.0006 23.6558V21.5071C23.9989 19.7155 24.6386 17.9826 25.8039 16.6218C26.9692 15.261 28.5831 14.3623 30.3535 14.0883C32.124 13.8142 33.9341 14.1831 35.4562 15.1279C36.9783 16.0728 38.1119 17.5313 38.6519 19.2396L41.5556 21.1746C41.6926 21.266 41.8049 21.3898 41.8825 21.535C41.9602 21.6802 42.0007 21.8424 42.0006 22.0071ZM39.1981 22.0071L37.2381 20.6996C37.0337 20.5636 36.8864 20.3572 36.8244 20.1196C36.4882 18.8238 35.691 17.6951 34.5822 16.9451C33.4734 16.1951 32.1291 15.8752 30.8013 16.0454C29.4735 16.2156 28.2534 16.8642 27.3696 17.8697C26.4858 18.8752 25.9991 20.1684 26.0006 21.5071V24.0071C26.0008 24.2342 25.9237 24.4546 25.7819 24.6321L15.0806 38.0071H26.0006C28.917 38.0038 31.713 36.8438 33.7751 34.7816C35.8373 32.7194 36.9973 29.9234 37.0006 27.0071V24.0071C37.0005 23.8424 37.0411 23.6802 37.1187 23.535C37.1963 23.3898 37.3086 23.266 37.4456 23.1746L39.1981 22.0071Z" fill="white"/>
</svg>
