<svg width="54" height="54" viewBox="0 0 54 54" fill="none" xmlns="http://www.w3.org/2000/svg">
<circle cx="27" cy="27" r="27" fill="#629F67"/>
<path d="M40.65 29.9881C40.5665 29.7551 40.4684 29.5276 40.3563 29.3069L35.1575 17.4794C35.1083 17.3655 35.0379 17.262 34.95 17.1744C34.5786 16.8029 34.1376 16.5081 33.6522 16.3071C33.1668 16.106 32.6466 16.0025 32.1213 16.0025C31.5959 16.0025 31.0757 16.106 30.5903 16.3071C30.1049 16.5081 29.6639 16.8029 29.2925 17.1744C29.1056 17.3615 29.0005 17.615 29 17.8794V21.0044H25V17.8794C25.0001 17.748 24.9743 17.6179 24.9241 17.4965C24.8739 17.3752 24.8003 17.2648 24.7075 17.1719C24.3361 16.8004 23.8951 16.5056 23.4097 16.3046C22.9243 16.1035 22.4041 16 21.8788 16C21.3534 16 20.8332 16.1035 20.3478 16.3046C19.8624 16.5056 19.4214 16.8004 19.05 17.1719C18.9621 17.2595 18.8917 17.363 18.8425 17.4769L13.6438 29.3044C13.5316 29.5251 13.4335 29.7526 13.35 29.9856C13.0556 30.8093 12.9449 31.6874 13.0256 32.5584C13.1063 33.4293 13.3764 34.2721 13.8171 35.0277C14.2577 35.7833 14.8583 36.4334 15.5766 36.9324C16.2949 37.4315 17.1137 37.7675 17.9756 37.9168C18.8374 38.0662 19.7215 38.0253 20.5659 37.797C21.4103 37.5687 22.1945 37.1586 22.8637 36.5953C23.5329 36.0321 24.0709 35.3293 24.4399 34.5363C24.8089 33.7432 25.0001 32.8791 25 32.0044V23.0044H29V32.0044C28.9996 32.8792 29.1904 33.7435 29.5592 34.5368C29.928 35.33 30.4658 36.0331 31.1349 36.5966C31.804 37.1602 32.5882 37.5706 33.4326 37.7991C34.277 38.0276 35.1612 38.0687 36.0232 37.9195C36.8852 37.7704 37.7041 37.4345 38.4226 36.9355C39.1411 36.4365 39.7418 35.7864 40.1826 35.0307C40.6234 34.2751 40.8937 33.4322 40.9744 32.5612C41.0551 31.6901 40.9444 30.8119 40.65 29.9881ZM20.5888 18.4731C20.9221 18.1924 21.3381 18.0283 21.7734 18.0057C22.2086 17.9832 22.6394 18.1034 23 18.3481V27.5369C22.2193 26.8358 21.268 26.3523 20.2415 26.1346C19.215 25.917 18.1493 25.973 17.1513 26.2969L20.5888 18.4731ZM19 36.0044C18.2089 36.0044 17.4355 35.7698 16.7777 35.3303C16.1199 34.8907 15.6072 34.266 15.3045 33.5351C15.0017 32.8042 14.9225 32 15.0769 31.224C15.2312 30.4481 15.6122 29.7354 16.1716 29.176C16.731 28.6166 17.4437 28.2356 18.2196 28.0813C18.9956 27.9269 19.7998 28.0061 20.5307 28.3089C21.2616 28.6116 21.8864 29.1243 22.3259 29.7821C22.7654 30.4399 23 31.2133 23 32.0044C23 33.0653 22.5786 34.0827 21.8284 34.8328C21.0783 35.583 20.0609 36.0044 19 36.0044ZM31 18.3469C31.3606 18.1022 31.7914 17.9819 32.2266 18.0045C32.6619 18.027 33.0778 18.1912 33.4112 18.4719L36.8487 26.2944C35.8506 25.9706 34.7849 25.9149 33.7584 26.1327C32.7318 26.3506 31.7806 26.8344 31 27.5356V18.3469ZM35 36.0044C34.2089 36.0044 33.4355 35.7698 32.7777 35.3303C32.1199 34.8907 31.6072 34.266 31.3045 33.5351C31.0017 32.8042 30.9225 32 31.0769 31.224C31.2312 30.4481 31.6122 29.7354 32.1716 29.176C32.731 28.6166 33.4437 28.2356 34.2196 28.0813C34.9956 27.9269 35.7998 28.0061 36.5307 28.3089C37.2616 28.6116 37.8864 29.1243 38.3259 29.7821C38.7654 30.4399 39 31.2133 39 32.0044C39 33.0653 38.5786 34.0827 37.8284 34.8328C37.0783 35.583 36.0609 36.0044 35 36.0044Z" fill="white"/>
</svg>
