<svg width="26" height="26" viewBox="0 0 26 26" fill="none" xmlns="http://www.w3.org/2000/svg">
<path d="M25.3631 19.2631C25.1403 20.9569 24.3084 22.5117 23.023 23.637C21.7376 24.7623 20.0865 25.3812 18.3781 25.3781C8.45315 25.3781 0.378147 17.3031 0.378147 7.37813C0.375085 5.66975 0.994006 4.01866 2.11931 2.73325C3.24462 1.44784 4.79936 0.616018 6.49315 0.393135C6.92146 0.340836 7.35521 0.428462 7.72963 0.642933C8.10405 0.857403 8.39907 1.18722 8.57065 1.58313L11.2106 7.47688V7.49188C11.342 7.79495 11.3963 8.12583 11.3686 8.45498C11.3409 8.78413 11.2321 9.10129 11.0519 9.37813C11.0294 9.41188 11.0056 9.44313 10.9806 9.47438L8.37815 12.5594C9.3144 14.4619 11.3044 16.4344 13.2319 17.3731L16.2744 14.7844C16.3043 14.7593 16.3356 14.7359 16.3681 14.7144C16.6448 14.5299 16.963 14.4173 17.2941 14.3867C17.6252 14.3562 17.9587 14.4086 18.2644 14.5394L18.2806 14.5469L24.1694 17.1856C24.566 17.3566 24.8966 17.6514 25.1118 18.0258C25.327 18.4003 25.4152 18.8344 25.3631 19.2631Z" fill="#629F67"/>
</svg>
