<svg width="26" height="24" viewBox="0 0 26 24" fill="none" xmlns="http://www.w3.org/2000/svg">
<path d="M25.615 2.21139C25.4952 2.11805 25.3557 2.05322 25.2072 2.02182C25.0586 1.99041 24.9048 1.99326 24.7575 2.03014L17.1162 3.94014L9.4475 0.105139C9.23383 -0.00143594 8.98908 -0.0280392 8.7575 0.0301396L0.7575 2.03014C0.541161 2.08422 0.349103 2.20905 0.211853 2.3848C0.0746019 2.56056 3.37634e-05 2.77714 0 3.00014V21.0001C2.30059e-05 21.1521 0.0346739 21.302 0.101321 21.4386C0.167968 21.5752 0.264859 21.6947 0.384633 21.7882C0.504408 21.8817 0.643916 21.9467 0.792562 21.9782C0.941209 22.0098 1.09508 22.007 1.2425 21.9701L8.88375 20.0601L16.5525 23.8951C16.6917 23.9638 16.8448 23.9997 17 24.0001C17.0818 24.0001 17.1632 23.99 17.2425 23.9701L25.2425 21.9701C25.4588 21.9161 25.6509 21.7912 25.7881 21.6155C25.9254 21.4397 26 21.2231 26 21.0001V3.00014C26 2.84805 25.9654 2.69795 25.8987 2.56127C25.8319 2.42459 25.7349 2.30493 25.615 2.21139ZM10 2.61764L16 5.61764V21.3826L10 18.3826V2.61764ZM2 3.78139L8 2.28139V18.2189L2 19.7189V3.78139ZM24 20.2189L18 21.7189V5.78139L24 4.28139V20.2189Z" fill="white"/>
</svg>
