<svg width="54" height="54" viewBox="0 0 54 54" fill="none" xmlns="http://www.w3.org/2000/svg">
<circle cx="27" cy="27" r="27" fill="white"/>
<path d="M27 19C26.0111 19 25.0444 19.2932 24.2221 19.8427C23.3999 20.3921 22.759 21.173 22.3806 22.0866C22.0022 23.0002 21.9031 24.0055 22.0961 24.9755C22.289 25.9454 22.7652 26.8363 23.4645 27.5355C24.1637 28.2348 25.0546 28.711 26.0245 28.9039C26.9945 29.0969 27.9998 28.9978 28.9134 28.6194C29.827 28.241 30.6079 27.6001 31.1573 26.7779C31.7068 25.9556 32 24.9889 32 24C32 22.6739 31.4732 21.4021 30.5355 20.4645C29.5979 19.5268 28.3261 19 27 19ZM27 27C26.4067 27 25.8266 26.8241 25.3333 26.4944C24.8399 26.1648 24.4554 25.6962 24.2284 25.1481C24.0013 24.5999 23.9419 23.9967 24.0576 23.4147C24.1734 22.8328 24.4591 22.2982 24.8787 21.8787C25.2982 21.4591 25.8328 21.1734 26.4147 21.0576C26.9967 20.9419 27.5999 21.0013 28.1481 21.2284C28.6962 21.4554 29.1648 21.8399 29.4944 22.3333C29.8241 22.8266 30 23.4067 30 24C30 24.7956 29.6839 25.5587 29.1213 26.1213C28.5587 26.6839 27.7956 27 27 27ZM27 13C24.0836 13.0033 21.2877 14.1633 19.2255 16.2255C17.1633 18.2877 16.0033 21.0836 16 24C16 27.925 17.8138 32.085 21.25 36.0312C22.794 37.8145 24.5318 39.4202 26.4312 40.8188C26.5994 40.9365 26.7997 40.9997 27.005 40.9997C27.2103 40.9997 27.4106 40.9365 27.5788 40.8188C29.4747 39.4196 31.2091 37.8139 32.75 36.0312C36.1813 32.085 38 27.925 38 24C37.9967 21.0836 36.8367 18.2877 34.7745 16.2255C32.7123 14.1633 29.9164 13.0033 27 13ZM27 38.75C24.9337 37.125 18 31.1562 18 24C18 21.6131 18.9482 19.3239 20.636 17.636C22.3239 15.9482 24.6131 15 27 15C29.3869 15 31.6761 15.9482 33.364 17.636C35.0518 19.3239 36 21.6131 36 24C36 31.1537 29.0663 37.125 27 38.75Z" fill="#FF3031"/>
</svg>
