<svg width="437" height="126" viewBox="0 0 437 126" fill="none" xmlns="http://www.w3.org/2000/svg">
<path d="M436.302 125.749H0.698364V31.8949C17.7478 31.8949 31.5684 18.0521 31.5684 0.97522H405.432C405.432 18.0521 419.252 31.8949 436.302 31.8949V125.749Z" fill="#EF3939"/>
<path fill-rule="evenodd" clip-rule="evenodd" d="M16.3771 44.3216V113.249H420.623V44.3216C405.117 43.5944 392.589 31.6557 391.802 16.6541H45.1983C44.4111 31.6557 31.8824 43.5944 16.3771 44.3216ZM43.7375 15.1541H393.262C393.262 30.4542 406.183 42.8567 422.123 42.8567V114.749H14.8771V42.8567C30.8166 42.8567 43.7375 30.4542 43.7375 15.1541Z" fill="white"/>
<path d="M364.172 73.7381L360.526 79.6633C360.07 80.3677 359.614 80.6992 359.158 80.6992C358.62 80.6992 358.288 80.4506 357.625 79.7876C357.335 79.4147 356.423 79.249 354.89 79.249H340.927C339.103 79.249 338.482 78.9175 338.482 77.7987C338.482 77.0943 338.938 76.5557 339.849 76.2656C340.968 75.9341 341.134 75.6855 341.258 74.8568C341.382 73.448 341.465 71.1691 341.465 68.02V62.7577C341.465 59.5672 341.382 57.2882 341.258 55.9209C341.134 55.0507 340.968 54.8021 339.849 54.4292C338.938 54.1391 338.482 53.6419 338.482 52.8961C338.482 51.9016 338.938 51.6116 340.927 51.6116H348.841C350.871 51.6116 351.285 51.8602 351.285 52.8961C351.285 53.6419 350.83 54.1391 349.918 54.4292C348.799 54.8021 348.592 55.0507 348.551 55.9209C348.426 57.2468 348.344 59.5257 348.344 62.7577V69.1802C348.344 73.1994 348.426 74.4425 348.882 74.8154C349.255 75.1883 350.581 75.3955 352.86 75.3955C354.973 75.3955 356.506 75.2297 357.542 74.8983C358.578 74.5253 359.945 73.7381 361.644 72.4536C362.514 71.832 363.095 71.542 363.467 71.542C364.089 71.542 364.586 72.0392 364.586 72.6607C364.586 72.9508 364.462 73.3237 364.172 73.7381Z" fill="white"/>
<path d="M334.665 73.7381L331.019 79.6633C330.563 80.3677 330.107 80.6992 329.652 80.6992C329.113 80.6992 328.781 80.4506 328.118 79.7876C327.828 79.4147 326.917 79.249 325.384 79.249H311.42C309.597 79.249 308.975 78.9175 308.975 77.7987C308.975 77.0943 309.431 76.5557 310.343 76.2656C311.461 75.9341 311.627 75.6855 311.752 74.8568C311.876 73.448 311.959 71.1691 311.959 68.02V62.7577C311.959 59.5672 311.876 57.2882 311.752 55.9209C311.627 55.0507 311.461 54.8021 310.343 54.4292C309.431 54.1391 308.975 53.6419 308.975 52.8961C308.975 51.9016 309.431 51.6116 311.42 51.6116H319.334C321.365 51.6116 321.779 51.8602 321.779 52.8961C321.779 53.6419 321.323 54.1391 320.411 54.4292C319.293 54.8021 319.086 55.0507 319.044 55.9209C318.92 57.2468 318.837 59.5257 318.837 62.7577V69.1802C318.837 73.1994 318.92 74.4425 319.376 74.8154C319.749 75.1883 321.074 75.3955 323.353 75.3955C325.467 75.3955 327 75.2297 328.036 74.8983C329.071 74.5253 330.439 73.7381 332.138 72.4536C333.008 71.832 333.588 71.542 333.961 71.542C334.582 71.542 335.08 72.0392 335.08 72.6607C335.08 72.9508 334.955 73.3237 334.665 73.7381Z" fill="white"/>
<path d="M301.997 62.882V68.02C301.997 71.1691 302.079 73.448 302.204 74.8568C302.245 75.6855 302.452 75.9341 303.571 76.3071C304.483 76.5971 304.938 77.0943 304.938 77.7987C304.938 78.9175 304.317 79.249 302.494 79.249H294.538C292.715 79.249 292.094 78.8761 292.094 77.8402C292.094 77.0943 292.549 76.5971 293.461 76.3071C294.58 75.9341 294.745 75.6855 294.87 74.8568C294.994 73.448 295.077 71.1691 295.077 68.02V62.882C295.077 59.6915 294.994 57.4125 294.87 56.0452C294.745 55.175 294.58 54.9678 293.461 54.5949C292.549 54.3049 292.094 53.7662 292.094 53.0618C292.094 52.0259 292.715 51.6116 294.538 51.6116H302.494C304.317 51.6116 304.938 52.0259 304.938 53.0618C304.938 53.7662 304.483 54.3049 303.571 54.5949C302.452 54.9678 302.245 55.175 302.204 56.0452C302.079 57.4125 301.997 59.6915 301.997 62.882Z" fill="white"/>
<path d="M261.888 68.02V66.2797H261.391C260.396 66.2797 259.733 66.1969 259.402 66.0311C258.863 65.7411 258.573 65.2853 258.573 64.5809C258.573 63.8765 258.863 63.3793 259.402 63.0892C259.733 62.9235 260.396 62.8406 261.391 62.8406H261.888V60.7274V58.8214C261.888 56.7082 261.764 55.3408 261.515 54.8021C261.349 54.4292 261.308 54.4292 260.272 54.1392C259.485 53.9734 259.07 53.5591 259.07 52.8961C259.07 52.1917 259.402 51.7359 260.106 51.5288C260.811 51.3216 262.344 51.1973 264.664 51.1973C270.962 51.1973 275.52 52.026 279.167 53.8491C282.109 55.2994 284.387 57.3711 286.003 60.0644C287.412 62.3848 288.117 64.8295 288.117 67.3985C288.117 70.6305 286.998 73.2823 284.76 75.3541C282.606 77.3844 280.161 78.3789 276.556 78.8347C274.029 79.1247 271.625 79.249 269.388 79.249H261.349C259.526 79.249 258.905 78.8761 258.905 77.8402C258.905 77.0944 259.361 76.5972 260.272 76.3071C261.391 75.9342 261.557 75.6856 261.681 74.8569C261.805 73.4066 261.888 71.1277 261.888 68.02ZM271.75 66.2797H268.766V69.4288C268.808 71.6249 268.849 72.9508 268.891 73.3652C268.932 73.7796 268.974 74.111 269.098 74.4011C269.388 75.0226 270.134 75.3541 271.335 75.3541C273.697 75.3541 275.603 74.7326 276.971 73.5309C278.918 71.8321 279.871 69.346 279.871 66.0726C279.871 62.3848 278.628 59.2357 276.349 57.4126C274.65 55.9623 272.868 55.2579 271.087 55.2579C269.388 55.2579 268.891 55.838 268.849 57.9927L268.766 62.8406H271.75C272.786 62.8406 273.449 62.9235 273.739 63.0892C274.319 63.3793 274.609 63.8765 274.609 64.5809C274.609 65.2853 274.319 65.7411 273.739 66.0311C273.449 66.1969 272.786 66.2797 271.75 66.2797Z" fill="white"/>
<path d="M255.599 73.6553L252.036 79.8291C251.704 80.4507 251.249 80.7407 250.71 80.7407C250.337 80.7407 249.923 80.5335 249.467 80.1606C248.928 79.7048 248.472 79.4562 248.182 79.3734C247.892 79.2905 247.188 79.249 246.152 79.249H229.536C227.713 79.249 227.092 78.8761 227.092 77.8402C227.092 77.0944 227.548 76.5557 228.459 76.2657C229.578 75.9342 229.744 75.6856 229.868 74.8569C229.992 73.4481 230.075 71.1691 230.075 68.0201V62.8821C230.075 59.6915 229.992 57.4126 229.868 56.0452C229.744 55.1751 229.578 54.9679 228.459 54.595C227.548 54.3049 227.092 53.8077 227.092 53.0619C227.092 52.026 227.713 51.6116 229.536 51.6116H242.63C244.453 51.6116 245.158 51.4873 245.986 50.9487C246.566 50.5343 247.022 50.3271 247.312 50.3271C247.768 50.3271 248.141 50.6172 248.514 51.1559L252.243 56.4596C252.492 56.8325 252.616 57.2054 252.616 57.5783C252.616 58.1999 252.119 58.7385 251.497 58.7385C251.166 58.7385 250.627 58.4485 249.881 57.827C248.514 56.7082 247.188 55.9624 245.945 55.548C244.702 55.1337 243.127 54.9265 241.263 54.9265C239.481 54.9265 238.321 55.0922 237.865 55.4237C237.409 55.7552 237.161 56.5425 237.161 57.827C237.161 59.4429 237.285 60.4788 237.575 60.9346C237.782 61.3075 238.487 61.4733 239.605 61.4733C240.765 61.4733 241.014 61.349 241.636 60.5617C242.423 59.5672 242.63 59.3186 243.127 59.3186C243.583 59.3186 244.039 59.6087 244.412 60.1888L247.851 65.3268C248.141 65.6997 248.265 66.0726 248.265 66.4041C248.265 67.1085 247.644 67.73 246.939 67.73C246.525 67.73 245.903 67.44 245.116 66.8184C244.163 66.114 243.459 65.6168 242.962 65.4096C242.091 65.0367 241.097 64.871 239.937 64.871C238.652 64.871 237.824 65.0781 237.492 65.4925C237.202 65.9069 237.036 66.9013 237.036 68.5173C237.036 71.1691 237.119 72.9094 237.243 73.6967C237.451 74.9812 238.196 75.3127 240.351 75.3127C243.832 75.3127 246.111 75.2298 247.188 75.1055C249.011 74.8569 250.876 73.9868 252.74 72.4536C253.693 71.6664 254.356 71.2934 254.646 71.2934C255.434 71.2934 255.889 71.8321 255.889 72.5365C255.889 72.9509 255.807 73.3238 255.599 73.6553Z" fill="white"/>
<path d="M197.561 78.6274L194.204 72.0392C193.997 71.6663 193.914 71.3762 193.914 71.0862C193.914 70.4647 194.287 70.0089 194.909 70.0089C195.24 70.0089 195.53 70.0918 195.82 70.2575C196.11 70.4232 196.69 70.8376 197.602 71.542C199.342 72.9094 201.124 73.9038 202.947 74.5253C205.392 75.3955 207.754 75.8098 210.033 75.8098C213.182 75.8098 215.295 74.401 215.295 72.3707C215.295 71.4177 214.881 70.589 214.052 69.926C213.265 69.2216 211.773 68.4758 209.577 67.6056C204.605 65.6582 201.414 64.1665 200.005 63.2135C197.809 61.6804 196.69 59.7743 196.69 57.4954C196.69 53.3933 199.922 51.0315 205.433 51.0315C206.676 51.0315 208.541 51.2801 210.986 51.7359C211.276 51.7773 211.483 51.8187 211.649 51.8187C212.104 51.8187 212.187 51.7773 212.809 51.1558C213.182 50.7829 213.596 50.5757 213.969 50.5757C214.425 50.5757 214.881 50.8657 215.295 51.4044L219.521 57.0396C219.811 57.4125 219.936 57.744 219.936 58.0755C219.936 58.6141 219.397 59.0699 218.858 59.0699C218.568 59.0699 218.278 58.9871 217.988 58.8213L215.419 57.2468C212.27 55.2579 209.991 54.4292 207.629 54.4292C205.972 54.4292 204.895 55.2164 204.895 56.5009C204.895 57.3711 205.35 57.8683 206.966 58.5313C207.754 58.9042 209.867 59.6915 213.265 60.8931C216.124 61.929 218.32 63.0477 219.894 64.2494C220.889 64.9952 221.676 65.9482 222.215 67.067C222.795 68.2686 223.085 69.5117 223.085 70.879C223.085 72.6607 222.629 74.2767 221.676 75.727C220.682 77.2186 219.19 78.296 217.201 79.0004C215.751 79.4976 214.135 79.7462 212.353 79.7462C209.867 79.7462 206.925 79.3318 203.486 78.5446C202.409 78.296 201.787 78.1717 201.58 78.1717C201.124 78.1717 201.165 78.1302 200.378 79.1247C200.005 79.5805 199.591 79.8291 199.135 79.8291C198.472 79.8291 197.934 79.4147 197.561 78.6274Z" fill="white"/>
<path d="M190.519 79.249H182.19C181.278 79.249 180.698 79.1247 180.491 78.9175C180.201 78.6274 180.077 78.296 180.077 77.8402C180.077 77.3015 180.367 76.9286 180.947 76.6385C181.941 76.2656 182.107 76.0584 182.107 75.6027C182.107 74.8154 181.568 73.448 180.947 72.7436C180.118 71.7077 179.124 71.4591 176.016 71.4591C174.069 71.4591 172.784 71.5006 172.163 71.6249C171.541 71.7492 171.002 71.9978 170.588 72.4121C169.801 73.1165 169.138 74.6496 169.138 75.6027C169.138 76.1413 169.179 76.1828 170.132 76.6385C170.795 76.8872 171.127 77.3015 171.127 77.923C171.127 78.7932 170.464 79.249 169.179 79.249H162.467C161.265 79.249 160.685 78.7932 160.685 77.923C160.685 77.0943 161.058 76.7629 162.757 76.0999C163.378 75.8927 163.917 75.354 164.373 74.5253C164.829 73.6966 165.782 71.542 167.19 68.1029L169.469 62.9649C170.671 60.2301 171.5 58.4484 171.873 57.6611C172.826 55.6308 173.447 54.3463 173.654 53.8076C174.152 52.5232 174.566 51.8187 174.939 51.6944C175.063 51.653 175.56 51.6116 176.389 51.6116H178.958C180.243 51.6116 180.408 51.6944 180.74 52.0259C180.906 52.2331 181.693 54.0977 183.102 57.6197L184.635 61.9704L186.541 66.7769C188.322 71.6249 189.4 74.401 189.773 75.064C190.063 75.5612 190.643 75.9756 191.513 76.3485C192.342 76.68 192.756 77.1772 192.756 77.8402C192.756 78.8761 192.217 79.249 190.519 79.249ZM177.384 61.9704L175.975 58.4898C175.229 59.9401 174.483 61.6389 173.696 63.5864C172.95 65.5339 172.577 66.6941 172.577 67.1084C172.577 67.8128 173.281 68.0614 175.602 68.0614C178.088 68.0614 179.041 67.7714 179.041 66.9427C179.041 66.6526 178.502 64.9952 177.384 61.9704Z" fill="white"/>
<path d="M158.718 73.7381L155.072 79.6633C154.616 80.3677 154.161 80.6992 153.705 80.6992C153.166 80.6992 152.835 80.4506 152.172 79.7876C151.882 79.4147 150.97 79.249 149.437 79.249H135.473C133.65 79.249 133.029 78.9175 133.029 77.7987C133.029 77.0943 133.484 76.5557 134.396 76.2656C135.515 75.9341 135.68 75.6855 135.805 74.8568C135.929 73.448 136.012 71.1691 136.012 68.02V62.7577C136.012 59.5672 135.929 57.2882 135.805 55.9209C135.68 55.0507 135.515 54.8021 134.396 54.4292C133.484 54.1391 133.029 53.6419 133.029 52.8961C133.029 51.9016 133.484 51.6116 135.473 51.6116H143.387C145.418 51.6116 145.832 51.8602 145.832 52.8961C145.832 53.6419 145.376 54.1391 144.465 54.4292C143.346 54.8021 143.139 55.0507 143.097 55.9209C142.973 57.2468 142.89 59.5257 142.89 62.7577V69.1802C142.89 73.1994 142.973 74.4425 143.429 74.8154C143.802 75.1883 145.128 75.3955 147.407 75.3955C149.52 75.3955 151.053 75.2297 152.089 74.8983C153.125 74.5253 154.492 73.7381 156.191 72.4536C157.061 71.832 157.641 71.542 158.014 71.542C158.636 71.542 159.133 72.0392 159.133 72.6607C159.133 72.9508 159.009 73.3237 158.718 73.7381Z" fill="white"/>
<path d="M113.437 51.073C117.829 51.073 121.558 52.6475 124.666 55.7552C127.608 58.6971 129.058 62.3434 129.058 66.6527C129.058 70.589 127.608 73.821 124.707 76.2657C123.133 77.5916 121.434 78.5032 119.652 79.0004C117.705 79.5391 115.592 79.7877 113.23 79.7877C108.672 79.7877 105.067 78.7518 102.457 76.7215C99.3903 74.3597 97.8572 71.0863 97.8572 66.8599C97.8572 64.0837 98.5616 61.4318 99.9289 58.9457C101.379 56.3767 103.41 54.3878 106.103 52.9376C108.382 51.6945 110.826 51.073 113.437 51.073ZM113.478 54.4292C111.489 54.4292 109.873 55.3408 108.672 57.1226C107.139 59.3601 106.393 62.3848 106.393 66.2383C106.393 69.7189 107.18 72.3293 108.713 74.0282C109.915 75.3956 111.531 76.0585 113.52 76.0585C115.55 76.0585 117.208 75.3541 118.492 73.9453C119.942 72.2879 120.688 69.8846 120.688 66.7356C120.688 62.6335 119.818 59.4015 118.078 57.0397C116.835 55.2994 115.301 54.4292 113.478 54.4292ZM109.708 46.9709L110.578 43.7804C110.951 42.413 111.199 42.2058 112.65 42.2058H115.55C116.917 42.2058 117.415 42.4544 117.415 43.1174C117.415 43.6146 117.083 44.1533 116.379 44.6919L111.779 48.2968C111.241 48.7112 110.785 48.9183 110.412 48.9183C109.832 48.9183 109.542 48.5869 109.542 47.8825C109.542 47.6753 109.583 47.3438 109.708 46.9709Z" fill="white"/>
<path d="M84.2609 69.0144V62.882C84.2609 59.6915 84.178 57.4125 84.0537 56.0452C84.0123 55.175 83.8051 54.9678 82.6864 54.5949C81.7748 54.3049 81.319 53.7662 81.319 53.0618C81.319 52.0259 81.9405 51.6116 83.7637 51.6116H91.6778C93.501 51.6116 94.1225 52.0259 94.1225 53.0618C94.1225 53.7662 93.6667 54.3049 92.7552 54.5949C91.6364 54.9678 91.4292 55.175 91.3878 56.0452C91.2635 57.4125 91.1806 59.6915 91.1806 62.882V69.0144C91.1806 71.2519 91.1392 72.7022 91.0149 73.3237C90.642 75.5198 89.5232 77.2186 87.6172 78.3788C85.9183 79.4147 84.0123 79.9119 81.8991 79.9119C79.3715 79.9119 77.2583 79.1661 75.5595 77.6744C73.7778 76.1828 72.7004 73.9038 72.7004 71.7077C72.7004 69.8017 73.3634 68.2272 74.6479 66.9841C75.6009 66.114 76.6782 65.6582 77.8799 65.6582C80.2417 65.6582 81.9405 67.1913 81.9405 69.4702C81.9405 70.9205 81.3604 71.9563 80.5317 71.9149H80.0759C79.0815 71.8735 78.3771 72.5779 78.3771 73.6966C78.3771 75.0226 79.5373 76.0585 81.029 76.0585C82.3549 76.0585 83.2665 75.4369 83.8051 74.2353C84.0952 73.5309 84.2609 71.7906 84.2609 69.0144Z" fill="white"/>
</svg>
