<svg width="479" height="168" viewBox="0 0 479 168" fill="none" xmlns="http://www.w3.org/2000/svg">
<g filter="url(#filter0_d_2049_8)">
<path d="M457.302 151.463H21.6984V57.6086C38.7478 57.6086 52.5684 43.7657 52.5684 26.6888H426.432C426.432 43.7657 440.252 57.6086 457.302 57.6086V151.463Z" fill="#EF3939"/>
</g>
<path d="M36.6271 139.713V69.3114C52.3481 68.9354 65.0699 56.7721 65.4774 41.6177H413.523C413.93 56.7721 426.652 68.9354 442.373 69.3114V139.713H36.6271Z" stroke="white" stroke-width="1.5"/>
<path d="M82.3702 80.3252H90.5744C92.6047 80.3252 93.0191 80.5739 93.0191 81.6097C93.0191 82.3556 92.5633 82.8528 91.6517 83.1429C90.533 83.5158 90.3672 83.7644 90.2429 84.6345C90.1186 86.0019 90.0357 88.2808 90.0357 91.4714V96.7337C90.0357 99.8827 90.1186 102.162 90.2429 103.57C90.3672 104.399 90.533 104.648 91.6517 105.021C92.5633 105.311 93.0191 105.808 93.0191 106.554C93.0191 107.59 92.3976 107.963 90.5744 107.963H82.5359C81.0028 107.963 80.4227 107.631 80.4227 106.678C80.4227 106.098 80.6299 105.642 81.0857 105.352C81.21 105.269 81.5829 105.104 82.2459 104.855C82.6188 104.689 82.8674 104.358 82.9917 103.819C83.116 103.198 83.1575 101.499 83.1575 98.7226C83.1575 96.4436 82.9503 95.8221 82.0802 95.4492C81.5829 95.242 79.8012 95.1591 76.735 95.1591C74.3732 95.1591 72.9644 95.2834 72.4671 95.4906C71.6799 95.7806 71.4727 96.485 71.4727 98.2668C71.4727 101.706 71.5556 103.653 71.7213 104.109C71.8456 104.482 71.8042 104.524 73.1301 105.021C73.8345 105.311 74.166 105.808 74.166 106.554C74.166 107.507 73.5859 107.963 72.3843 107.963H64.0143C62.1912 107.963 61.5696 107.59 61.5696 106.554C61.5696 105.808 62.0254 105.311 62.937 105.021C64.0558 104.648 64.2215 104.399 64.3458 103.57C64.4701 102.162 64.553 99.8827 64.553 96.7337V91.5957C64.553 88.4051 64.4701 86.1262 64.3458 84.7588C64.2215 83.8887 64.0558 83.6815 62.937 83.3086C62.0254 83.0185 61.5696 82.4799 61.5696 81.7755C61.5696 80.7396 62.1912 80.3252 64.0143 80.3252H72.2185C73.7516 80.3252 74.3317 80.7396 74.3317 81.8584C74.3317 82.6042 73.8345 83.06 72.8815 83.2672C72.0114 83.4743 71.8456 83.6401 71.7213 84.1787C71.6384 84.676 71.597 86.0433 71.597 88.2394C71.597 90.3526 71.6799 90.8498 72.3014 91.1399C72.5914 91.2642 72.9229 91.3471 73.3373 91.3885C73.7931 91.4299 75.2019 91.4299 77.5637 91.4714H79.9255C81.2929 91.4714 82.2045 91.2642 82.5774 90.8498C83.0746 90.4769 83.1575 89.8968 83.1575 88.0322C83.1575 85.5875 83.0746 84.2202 82.9503 83.8473C82.7846 83.5158 82.7846 83.5158 81.4172 83.1429C80.7542 82.9357 80.4227 82.5213 80.4227 81.8169C80.4227 80.8225 81.0857 80.3252 82.3702 80.3252ZM112.564 79.7866C116.956 79.7866 120.685 81.3611 123.793 84.4688C126.735 87.4107 128.185 91.057 128.185 95.3663C128.185 99.3027 126.735 102.535 123.834 104.979C122.26 106.305 120.561 107.217 118.779 107.714C116.831 108.253 114.718 108.501 112.356 108.501C107.799 108.501 104.194 107.465 101.583 105.435C98.517 103.073 96.9839 99.7999 96.9839 95.5735C96.9839 92.7973 97.6883 90.1454 99.0557 87.6593C100.506 85.0903 102.536 83.1014 105.23 81.6512C107.509 80.4081 109.953 79.7866 112.564 79.7866ZM112.605 83.1429C110.616 83.1429 109 84.0544 107.799 85.8362C106.265 88.0737 105.52 91.0984 105.52 94.9519C105.52 98.4325 106.307 101.043 107.84 102.742C109.042 104.109 110.658 104.772 112.647 104.772C114.677 104.772 116.334 104.068 117.619 102.659C119.069 101.002 119.815 98.5982 119.815 95.4492C119.815 91.3471 118.945 88.1151 117.204 85.7533C115.961 84.013 114.428 83.1429 112.605 83.1429ZM157.845 102.452L154.199 108.377C153.743 109.081 153.288 109.413 152.832 109.413C152.293 109.413 151.962 109.164 151.299 108.501C151.009 108.128 150.097 107.963 148.564 107.963H134.6C132.777 107.963 132.155 107.631 132.155 106.512C132.155 105.808 132.611 105.269 133.523 104.979C134.642 104.648 134.807 104.399 134.932 103.57C135.056 102.162 135.139 99.8827 135.139 96.7337V91.4714C135.139 88.2808 135.056 86.0019 134.932 84.6345C134.807 83.7644 134.642 83.5158 133.523 83.1429C132.611 82.8528 132.155 82.3556 132.155 81.6097C132.155 80.6153 132.611 80.3252 134.6 80.3252H142.514C144.545 80.3252 144.959 80.5739 144.959 81.6097C144.959 82.3556 144.503 82.8528 143.592 83.1429C142.473 83.5158 142.266 83.7644 142.224 84.6345C142.1 85.9605 142.017 88.2394 142.017 91.4714V97.8938C142.017 101.913 142.1 103.156 142.556 103.529C142.929 103.902 144.255 104.109 146.534 104.109C148.647 104.109 150.18 103.943 151.216 103.612C152.252 103.239 153.619 102.452 155.318 101.167C156.188 100.546 156.768 100.256 157.141 100.256C157.763 100.256 158.26 100.753 158.26 101.374C158.26 101.664 158.135 102.037 157.845 102.452ZM171.565 91.5957V96.7337C171.565 99.8827 171.648 102.162 171.772 103.57C171.814 104.399 172.021 104.648 173.14 105.021C174.051 105.311 174.507 105.808 174.507 106.512C174.507 107.631 173.885 107.963 172.062 107.963H164.107C162.284 107.963 161.662 107.59 161.662 106.554C161.662 105.808 162.118 105.311 163.029 105.021C164.148 104.648 164.314 104.399 164.438 103.57C164.562 102.162 164.645 99.8827 164.645 96.7337V91.5957C164.645 88.4051 164.562 86.1262 164.438 84.7588C164.314 83.8887 164.148 83.6815 163.029 83.3086C162.118 83.0185 161.662 82.4799 161.662 81.7755C161.662 80.7396 162.284 80.3252 164.107 80.3252L172.062 80.3252C173.885 80.3252 174.507 80.7396 174.507 81.7755C174.507 82.4799 174.051 83.0185 173.14 83.3086C172.021 83.6815 171.814 83.8887 171.772 84.7588C171.648 86.1262 171.565 88.4051 171.565 91.5957ZM189.027 107.963H180.988C179.165 107.963 178.544 107.59 178.544 106.554C178.544 105.808 178.999 105.311 179.911 105.021C181.03 104.648 181.196 104.399 181.32 103.57C181.444 102.162 181.527 99.8827 181.527 96.7337V90.5183L181.486 88.9024V86.6649C181.444 85.2146 181.403 84.3859 181.361 84.1787C181.32 83.9301 181.237 83.7229 181.113 83.5572C180.823 83.1014 180.74 83.06 179.911 82.8942C179.124 82.6871 178.709 82.2313 178.709 81.6097C178.709 80.9053 179.041 80.4496 179.662 80.2424C180.325 80.0352 181.734 79.9109 183.847 79.9109C187.742 79.9109 190.891 80.1595 193.295 80.6567C197.728 81.6097 201.209 83.5158 203.819 86.3748C206.43 89.2339 207.714 92.5072 207.714 96.1121C207.714 99.3027 206.595 101.955 204.399 104.026C202.079 106.222 199.634 107.3 196.154 107.631C193.709 107.838 191.347 107.963 189.027 107.963ZM190.684 83.9716C189.317 83.9716 188.612 84.5102 188.488 85.5875C188.447 86.2919 188.405 88.6952 188.405 92.7973V96.3193C188.447 98.5154 188.447 99.8827 188.447 100.421C188.447 102.037 188.612 103.073 188.985 103.488C189.317 103.861 189.98 104.026 190.974 104.026C193.336 104.026 195.201 103.405 196.568 102.203C198.516 100.504 199.51 98.101 199.51 94.9934C199.51 91.0156 198.308 88.0322 195.947 86.0848C194.248 84.676 192.466 83.9716 190.684 83.9716ZM236.641 107.963H228.312C227.401 107.963 226.82 107.838 226.613 107.631C226.323 107.341 226.199 107.01 226.199 106.554C226.199 106.015 226.489 105.642 227.069 105.352C228.063 104.979 228.229 104.772 228.229 104.316C228.229 103.529 227.691 102.162 227.069 101.457C226.24 100.421 225.246 100.173 222.138 100.173C220.191 100.173 218.906 100.214 218.285 100.339C217.663 100.463 217.125 100.711 216.71 101.126C215.923 101.83 215.26 103.363 215.26 104.316C215.26 104.855 215.301 104.896 216.254 105.352C216.917 105.601 217.249 106.015 217.249 106.637C217.249 107.507 216.586 107.963 215.301 107.963H208.589C207.387 107.963 206.807 107.507 206.807 106.637C206.807 105.808 207.18 105.477 208.879 104.814C209.5 104.606 210.039 104.068 210.495 103.239C210.951 102.41 211.904 100.256 213.312 96.8165L215.591 91.6785C216.793 88.9438 217.622 87.1621 217.995 86.3748C218.948 84.3445 219.569 83.06 219.776 82.5213C220.274 81.2368 220.688 80.5324 221.061 80.4081C221.185 80.3667 221.682 80.3252 222.511 80.3252H225.08C226.365 80.3252 226.53 80.4081 226.862 80.7396C227.028 80.9468 227.815 82.8114 229.224 86.3334L230.757 90.6841L232.663 95.4906C234.445 100.339 235.522 103.115 235.895 103.778C236.185 104.275 236.765 104.689 237.635 105.062C238.464 105.394 238.878 105.891 238.878 106.554C238.878 107.59 238.339 107.963 236.641 107.963ZM223.506 90.6841L222.097 87.2035C221.351 88.6538 220.605 90.3526 219.818 92.3001C219.072 94.2475 218.699 95.4077 218.699 95.8221C218.699 96.5265 219.403 96.7751 221.724 96.7751C224.21 96.7751 225.163 96.485 225.163 95.6563C225.163 95.3663 224.624 93.7089 223.506 90.6841ZM245.215 85.7533L249.856 91.7614L254.787 84.8831C255.118 84.4273 255.284 84.013 255.284 83.6401C255.284 83.35 255.035 83.1014 254.58 82.8942C253.917 82.5628 253.585 82.107 253.585 81.5683C253.585 80.8639 254.165 80.3252 255.035 80.3252H261.996C263.322 80.3252 263.778 80.6567 263.778 81.6097C263.778 82.3141 263.571 82.6042 262.452 82.9771C261.789 83.1843 261.209 83.6401 260.712 84.303L253.419 94.3304C252.881 95.0348 252.591 95.5735 252.466 95.9049C252.342 96.195 252.301 96.7751 252.301 97.6452V100.919C252.301 102.659 252.383 103.736 252.549 104.192C252.715 104.648 253.171 104.938 253.917 105.145C254.745 105.352 255.16 105.849 255.16 106.637C255.16 107.507 254.455 107.963 253.088 107.963H244.096C243.226 107.963 242.646 107.383 242.646 106.554C242.646 105.849 243.061 105.352 243.889 105.104C244.594 104.896 245.008 104.689 245.174 104.441C245.339 104.192 245.422 103.612 245.422 102.7V99.5513C245.422 98.5982 245.381 97.9767 245.257 97.6867C245.174 97.3966 244.842 96.858 244.262 96.0707L236.307 85.1732C235.768 84.4688 235.395 84.013 235.188 83.8473C234.981 83.6401 234.608 83.4329 234.028 83.2257C233.075 82.8114 232.577 82.2727 232.577 81.6097C232.577 80.7396 233.157 80.3252 234.359 80.3252H244.345C245.381 80.3252 245.878 80.781 245.878 81.6926C245.878 82.2313 245.588 82.6042 245.008 82.8942C244.304 83.2257 243.972 83.5158 243.972 83.7644C243.972 84.0959 244.014 84.1373 245.215 85.7533ZM311.003 101.747L308.558 91.7614L301.348 105.891C300.52 107.507 300.147 107.921 299.608 107.921C298.987 107.921 298.407 107.3 297.785 106.015L290.782 91.2228L287.26 102.576C287.053 103.239 286.97 103.778 286.97 104.151C286.97 104.606 287.219 104.979 287.675 105.228C288.711 105.725 288.918 105.974 288.918 106.678C288.918 107.548 288.338 107.963 287.136 107.963L280.672 107.963C279.968 107.963 279.429 107.383 279.429 106.72C279.429 106.015 279.719 105.642 280.714 105.269C281.874 104.896 282.122 104.524 282.661 102.742L287.426 86.4162C287.633 85.7118 287.758 85.1318 287.758 84.6345C287.758 83.8473 287.592 83.6815 286.307 82.9771C285.81 82.7699 285.562 82.3556 285.562 81.7755C285.562 80.781 286.225 80.3252 287.882 80.3252H295.092C296.376 80.3252 296.998 80.781 296.998 81.6926C296.998 82.2727 296.625 82.8114 295.838 83.2672C295.299 83.5986 295.05 83.9301 295.05 84.2202C295.05 84.5517 295.175 85.0074 295.465 85.629L300.354 95.1591C300.685 95.8635 300.976 96.195 301.183 96.195C301.431 96.195 301.721 95.8221 302.053 95.1177L306.694 85.629C306.942 85.1318 307.067 84.7174 307.067 84.3445C307.067 83.6401 306.901 83.4329 305.575 82.8942C305.078 82.6456 304.829 82.2313 304.829 81.6512C304.829 80.781 305.451 80.3252 306.694 80.3252H314.152C315.685 80.3252 316.224 80.6567 316.224 81.6512C316.224 82.2727 315.851 82.7699 315.146 83.06C314.276 83.4329 313.862 83.9301 313.862 84.4688C313.862 84.8003 313.986 85.4218 314.193 86.3334L318.627 102.576C319 104.109 319.331 104.482 320.657 105.021C321.652 105.477 321.942 105.849 321.942 106.512C321.942 107.465 321.362 107.963 320.202 107.963H310.796C309.801 107.963 309.18 107.383 309.18 106.554C309.18 105.849 309.594 105.352 310.381 105.062C311.086 104.814 311.459 104.399 311.459 103.861C311.459 103.736 311.293 103.032 311.003 101.747ZM353.37 102.369L349.806 108.543C349.475 109.164 349.019 109.454 348.481 109.454C348.108 109.454 347.693 109.247 347.237 108.874C346.699 108.418 346.243 108.17 345.953 108.087C345.663 108.004 344.959 107.963 343.923 107.963H327.307C325.484 107.963 324.862 107.59 324.862 106.554C324.862 105.808 325.318 105.269 326.23 104.979C327.348 104.648 327.514 104.399 327.639 103.57C327.763 102.162 327.846 99.8827 327.846 96.7337V91.5957C327.846 88.4051 327.763 86.1262 327.639 84.7588C327.514 83.8887 327.348 83.6815 326.23 83.3086C325.318 83.0185 324.862 82.5213 324.862 81.7755C324.862 80.7396 325.484 80.3252 327.307 80.3252H340.401C342.224 80.3252 342.928 80.2009 343.757 79.6623C344.337 79.2479 344.793 79.0407 345.083 79.0407C345.539 79.0407 345.912 79.3308 346.284 79.8695L350.014 85.1732C350.262 85.5461 350.387 85.919 350.387 86.2919C350.387 86.9135 349.889 87.4521 349.268 87.4521C348.936 87.4521 348.398 87.1621 347.652 86.5406C346.284 85.4218 344.959 84.676 343.715 84.2616C342.472 83.8473 340.898 83.6401 339.033 83.6401C337.252 83.6401 336.091 83.8058 335.636 84.1373C335.18 84.4688 334.931 85.2561 334.931 86.5406C334.931 88.1565 335.055 89.1924 335.346 89.6482C335.553 90.0211 336.257 90.1869 337.376 90.1869C338.536 90.1869 338.785 90.0626 339.406 89.2753C340.193 88.2808 340.401 88.0322 340.898 88.0322C341.354 88.0322 341.809 88.3223 342.182 88.9024L345.622 94.0404C345.912 94.4133 346.036 94.7862 346.036 95.1177C346.036 95.8221 345.414 96.4436 344.71 96.4436C344.296 96.4436 343.674 96.1536 342.887 95.532C341.934 94.8276 341.229 94.3304 340.732 94.1232C339.862 93.7503 338.868 93.5846 337.707 93.5846C336.423 93.5846 335.594 93.7917 335.263 94.2061C334.973 94.6205 334.807 95.6149 334.807 97.2309C334.807 99.8827 334.89 101.623 335.014 102.41C335.221 103.695 335.967 104.026 338.122 104.026C341.602 104.026 343.881 103.943 344.959 103.819C346.782 103.57 348.646 102.7 350.511 101.167C351.464 100.38 352.127 100.007 352.417 100.007C353.204 100.007 353.66 100.546 353.66 101.25C353.66 101.664 353.577 102.037 353.37 102.369ZM382.407 107.963H380.915C380.294 107.963 379.921 107.921 379.796 107.797C379.713 107.673 379.672 107.217 379.631 106.43C379.589 105.435 379.465 104.648 379.216 104.109C378.968 103.529 378.429 102.825 377.6 101.955L365.584 89.2339C365.128 88.7781 364.797 88.5709 364.548 88.5709C364.175 88.5709 364.134 88.7366 364.009 91.0984V96.7337C364.009 99.8827 364.092 102.162 364.217 103.57C364.258 104.399 364.465 104.648 365.584 105.021C366.496 105.311 366.951 105.808 366.951 106.554C366.951 107.59 366.33 107.963 364.507 107.963H359.12C357.297 107.963 356.675 107.59 356.675 106.554C356.675 105.808 357.131 105.311 358.043 105.021C359.161 104.648 359.327 104.399 359.452 103.57C359.576 102.162 359.659 99.8827 359.659 96.7337V91.5957C359.659 88.4466 359.576 86.1676 359.452 84.7588C359.327 83.8887 359.161 83.6815 358.043 83.3086C357.131 83.0185 356.675 82.4799 356.675 81.7755C356.675 80.7396 357.297 80.3252 359.12 80.3252H365.46C366.247 80.3252 366.786 80.4081 367.117 80.5739C367.449 80.7396 367.946 81.154 368.65 81.8169L378.056 91.2228C378.595 91.7614 378.968 92.01 379.216 92.01C379.589 92.01 379.672 91.9272 379.672 89.8139V85.9605C379.672 84.0959 379.341 83.4743 378.139 83.0185C377.144 82.7285 376.854 82.3556 376.854 81.6512C376.854 80.6982 377.31 80.3252 378.636 80.3252H384.313C386.136 80.3252 386.757 80.7396 386.757 81.7755C386.757 82.4799 386.302 83.0185 385.39 83.3086C384.271 83.6815 384.064 83.8887 384.023 84.7588C383.898 86.1262 383.816 88.4051 383.816 91.5957V105.269C383.816 106.72 383.774 107.507 383.65 107.714C383.525 107.88 383.567 107.921 382.407 107.963ZM414.835 87.3693L415.581 97.0651C415.622 97.8524 415.664 98.6811 415.664 99.5513C415.664 101.872 415.332 103.57 414.628 104.689C413.758 106.139 412.308 107.175 410.319 107.714C408.62 108.211 406.631 108.46 404.352 108.46C400.043 108.46 396.935 107.755 395.029 106.347C393.04 104.896 392.046 102.825 392.046 100.131C392.046 99.8413 392.128 98.6811 392.253 96.7337L393.082 86.3334C393.123 85.7947 393.123 85.2975 393.123 84.8003C393.123 83.8473 392.874 83.5572 392.004 83.2672C391.051 83.0185 390.595 82.5628 390.595 81.8584C390.595 80.8225 391.217 80.3252 392.419 80.3252H400.788C401.742 80.3252 402.404 80.491 402.695 80.781C402.943 81.0296 403.067 81.3611 403.067 81.7755C403.067 82.4799 402.612 82.9357 401.742 83.1429C400.954 83.3086 400.498 83.5986 400.333 83.9716C400.167 84.3859 400.043 85.4218 399.918 87.1206L399.421 96.3607C399.38 97.2723 399.338 98.101 399.338 98.8883C399.338 101.167 399.67 102.286 400.54 103.28C401.493 104.358 403.109 104.896 405.305 104.896C409.573 104.896 411.52 103.073 411.52 99.2612C411.52 98.6397 411.479 97.8524 411.437 96.8165L410.94 88.0322C410.816 85.919 410.609 84.5517 410.401 83.9301C410.236 83.4329 410.07 83.3086 409.117 82.9771C408.247 82.6871 407.833 82.2313 407.833 81.6097C407.833 80.7396 408.371 80.3252 409.448 80.3252H415.498C416.617 80.3252 417.155 80.7396 417.155 81.5683C417.155 82.397 416.907 82.7699 415.912 82.9771C415.042 83.1843 414.669 83.6815 414.669 84.8003C414.669 85.1732 414.711 86.0019 414.835 87.3693Z" fill="white"/>
<defs>
<filter id="filter0_d_2049_8" x="0.298365" y="0.288843" width="478.403" height="167.574" filterUnits="userSpaceOnUse" color-interpolation-filters="sRGB">
<feFlood flood-opacity="0" result="BackgroundImageFix"/>
<feColorMatrix in="SourceAlpha" type="matrix" values="0 0 0 0 0 0 0 0 0 0 0 0 0 0 0 0 0 0 127 0" result="hardAlpha"/>
<feOffset dy="-5"/>
<feGaussianBlur stdDeviation="10.7"/>
<feComposite in2="hardAlpha" operator="out"/>
<feColorMatrix type="matrix" values="0 0 0 0 0 0 0 0 0 0 0 0 0 0 0 0 0 0 0.36 0"/>
<feBlend mode="normal" in2="BackgroundImageFix" result="effect1_dropShadow_2049_8"/>
<feBlend mode="normal" in="SourceGraphic" in2="effect1_dropShadow_2049_8" result="shape"/>
</filter>
</defs>
</svg>
